%TF.GenerationSoftware,KiCad,Pcbnew,(6.0.2)*%
%TF.CreationDate,2022-06-08T22:41:36-07:00*%
%TF.ProjectId,TrailAlarm,54726169-6c41-46c6-9172-6d2e6b696361,1*%
%TF.SameCoordinates,Original*%
%TF.FileFunction,Legend,Top*%
%TF.FilePolarity,Positive*%
%FSLAX46Y46*%
G04 Gerber Fmt 4.6, Leading zero omitted, Abs format (unit mm)*
G04 Created by KiCad (PCBNEW (6.0.2)) date 2022-06-08 22:41:36*
%MOMM*%
%LPD*%
G01*
G04 APERTURE LIST*
%ADD10C,0.150000*%
%ADD11C,0.254000*%
%ADD12C,0.120000*%
%ADD13C,0.200000*%
G04 APERTURE END LIST*
D10*
%TO.C,R4*%
X156879592Y-112941639D02*
X156546259Y-112465449D01*
X156308163Y-112941639D02*
X156308163Y-111941639D01*
X156689116Y-111941639D01*
X156784354Y-111989259D01*
X156831973Y-112036878D01*
X156879592Y-112132116D01*
X156879592Y-112274973D01*
X156831973Y-112370211D01*
X156784354Y-112417830D01*
X156689116Y-112465449D01*
X156308163Y-112465449D01*
X157736735Y-112274973D02*
X157736735Y-112941639D01*
X157498639Y-111894020D02*
X157260544Y-112608306D01*
X157879592Y-112608306D01*
%TO.C,R18*%
X160213401Y-120561639D02*
X159880068Y-120085449D01*
X159641973Y-120561639D02*
X159641973Y-119561639D01*
X160022925Y-119561639D01*
X160118163Y-119609259D01*
X160165782Y-119656878D01*
X160213401Y-119752116D01*
X160213401Y-119894973D01*
X160165782Y-119990211D01*
X160118163Y-120037830D01*
X160022925Y-120085449D01*
X159641973Y-120085449D01*
X161165782Y-120561639D02*
X160594354Y-120561639D01*
X160880068Y-120561639D02*
X160880068Y-119561639D01*
X160784830Y-119704497D01*
X160689592Y-119799735D01*
X160594354Y-119847354D01*
X161737211Y-119990211D02*
X161641973Y-119942592D01*
X161594354Y-119894973D01*
X161546735Y-119799735D01*
X161546735Y-119752116D01*
X161594354Y-119656878D01*
X161641973Y-119609259D01*
X161737211Y-119561639D01*
X161927687Y-119561639D01*
X162022925Y-119609259D01*
X162070544Y-119656878D01*
X162118163Y-119752116D01*
X162118163Y-119799735D01*
X162070544Y-119894973D01*
X162022925Y-119942592D01*
X161927687Y-119990211D01*
X161737211Y-119990211D01*
X161641973Y-120037830D01*
X161594354Y-120085449D01*
X161546735Y-120180687D01*
X161546735Y-120371163D01*
X161594354Y-120466401D01*
X161641973Y-120514020D01*
X161737211Y-120561639D01*
X161927687Y-120561639D01*
X162022925Y-120514020D01*
X162070544Y-120466401D01*
X162118163Y-120371163D01*
X162118163Y-120180687D01*
X162070544Y-120085449D01*
X162022925Y-120037830D01*
X161927687Y-119990211D01*
%TO.C,R19*%
X151868639Y-137177116D02*
X151392449Y-137510449D01*
X151868639Y-137748544D02*
X150868639Y-137748544D01*
X150868639Y-137367592D01*
X150916259Y-137272354D01*
X150963878Y-137224735D01*
X151059116Y-137177116D01*
X151201973Y-137177116D01*
X151297211Y-137224735D01*
X151344830Y-137272354D01*
X151392449Y-137367592D01*
X151392449Y-137748544D01*
X151868639Y-136224735D02*
X151868639Y-136796163D01*
X151868639Y-136510449D02*
X150868639Y-136510449D01*
X151011497Y-136605687D01*
X151106735Y-136700925D01*
X151154354Y-136796163D01*
X151868639Y-135748544D02*
X151868639Y-135558068D01*
X151821020Y-135462830D01*
X151773401Y-135415211D01*
X151630544Y-135319973D01*
X151440068Y-135272354D01*
X151059116Y-135272354D01*
X150963878Y-135319973D01*
X150916259Y-135367592D01*
X150868639Y-135462830D01*
X150868639Y-135653306D01*
X150916259Y-135748544D01*
X150963878Y-135796163D01*
X151059116Y-135843782D01*
X151297211Y-135843782D01*
X151392449Y-135796163D01*
X151440068Y-135748544D01*
X151487687Y-135653306D01*
X151487687Y-135462830D01*
X151440068Y-135367592D01*
X151392449Y-135319973D01*
X151297211Y-135272354D01*
%TO.C,C14*%
X160233401Y-135611401D02*
X160185782Y-135659020D01*
X160042925Y-135706639D01*
X159947687Y-135706639D01*
X159804830Y-135659020D01*
X159709592Y-135563782D01*
X159661973Y-135468544D01*
X159614354Y-135278068D01*
X159614354Y-135135211D01*
X159661973Y-134944735D01*
X159709592Y-134849497D01*
X159804830Y-134754259D01*
X159947687Y-134706639D01*
X160042925Y-134706639D01*
X160185782Y-134754259D01*
X160233401Y-134801878D01*
X161185782Y-135706639D02*
X160614354Y-135706639D01*
X160900068Y-135706639D02*
X160900068Y-134706639D01*
X160804830Y-134849497D01*
X160709592Y-134944735D01*
X160614354Y-134992354D01*
X162042925Y-135039973D02*
X162042925Y-135706639D01*
X161804830Y-134659020D02*
X161566735Y-135373306D01*
X162185782Y-135373306D01*
%TO.C,R8*%
X179003639Y-127175925D02*
X178527449Y-127509259D01*
X179003639Y-127747354D02*
X178003639Y-127747354D01*
X178003639Y-127366401D01*
X178051259Y-127271163D01*
X178098878Y-127223544D01*
X178194116Y-127175925D01*
X178336973Y-127175925D01*
X178432211Y-127223544D01*
X178479830Y-127271163D01*
X178527449Y-127366401D01*
X178527449Y-127747354D01*
X178432211Y-126604497D02*
X178384592Y-126699735D01*
X178336973Y-126747354D01*
X178241735Y-126794973D01*
X178194116Y-126794973D01*
X178098878Y-126747354D01*
X178051259Y-126699735D01*
X178003639Y-126604497D01*
X178003639Y-126414020D01*
X178051259Y-126318782D01*
X178098878Y-126271163D01*
X178194116Y-126223544D01*
X178241735Y-126223544D01*
X178336973Y-126271163D01*
X178384592Y-126318782D01*
X178432211Y-126414020D01*
X178432211Y-126604497D01*
X178479830Y-126699735D01*
X178527449Y-126747354D01*
X178622687Y-126794973D01*
X178813163Y-126794973D01*
X178908401Y-126747354D01*
X178956020Y-126699735D01*
X179003639Y-126604497D01*
X179003639Y-126414020D01*
X178956020Y-126318782D01*
X178908401Y-126271163D01*
X178813163Y-126223544D01*
X178622687Y-126223544D01*
X178527449Y-126271163D01*
X178479830Y-126318782D01*
X178432211Y-126414020D01*
%TO.C,JP1*%
X121337925Y-132081639D02*
X121337925Y-132795925D01*
X121290306Y-132938782D01*
X121195068Y-133034020D01*
X121052211Y-133081639D01*
X120956973Y-133081639D01*
X121814116Y-133081639D02*
X121814116Y-132081639D01*
X122195068Y-132081639D01*
X122290306Y-132129259D01*
X122337925Y-132176878D01*
X122385544Y-132272116D01*
X122385544Y-132414973D01*
X122337925Y-132510211D01*
X122290306Y-132557830D01*
X122195068Y-132605449D01*
X121814116Y-132605449D01*
X123337925Y-133081639D02*
X122766497Y-133081639D01*
X123052211Y-133081639D02*
X123052211Y-132081639D01*
X122956973Y-132224497D01*
X122861735Y-132319735D01*
X122766497Y-132367354D01*
%TO.C,R1*%
X177834592Y-130086639D02*
X177501259Y-129610449D01*
X177263163Y-130086639D02*
X177263163Y-129086639D01*
X177644116Y-129086639D01*
X177739354Y-129134259D01*
X177786973Y-129181878D01*
X177834592Y-129277116D01*
X177834592Y-129419973D01*
X177786973Y-129515211D01*
X177739354Y-129562830D01*
X177644116Y-129610449D01*
X177263163Y-129610449D01*
X178786973Y-130086639D02*
X178215544Y-130086639D01*
X178501259Y-130086639D02*
X178501259Y-129086639D01*
X178406020Y-129229497D01*
X178310782Y-129324735D01*
X178215544Y-129372354D01*
%TO.C,TP2*%
X161508614Y-145324380D02*
X162080042Y-145324380D01*
X161794328Y-146324380D02*
X161794328Y-145324380D01*
X162413376Y-146324380D02*
X162413376Y-145324380D01*
X162794328Y-145324380D01*
X162889566Y-145372000D01*
X162937185Y-145419619D01*
X162984804Y-145514857D01*
X162984804Y-145657714D01*
X162937185Y-145752952D01*
X162889566Y-145800571D01*
X162794328Y-145848190D01*
X162413376Y-145848190D01*
X163365757Y-145419619D02*
X163413376Y-145372000D01*
X163508614Y-145324380D01*
X163746709Y-145324380D01*
X163841947Y-145372000D01*
X163889566Y-145419619D01*
X163937185Y-145514857D01*
X163937185Y-145610095D01*
X163889566Y-145752952D01*
X163318138Y-146324380D01*
X163937185Y-146324380D01*
%TO.C,R17*%
X155043639Y-123842116D02*
X154567449Y-124175449D01*
X155043639Y-124413544D02*
X154043639Y-124413544D01*
X154043639Y-124032592D01*
X154091259Y-123937354D01*
X154138878Y-123889735D01*
X154234116Y-123842116D01*
X154376973Y-123842116D01*
X154472211Y-123889735D01*
X154519830Y-123937354D01*
X154567449Y-124032592D01*
X154567449Y-124413544D01*
X155043639Y-122889735D02*
X155043639Y-123461163D01*
X155043639Y-123175449D02*
X154043639Y-123175449D01*
X154186497Y-123270687D01*
X154281735Y-123365925D01*
X154329354Y-123461163D01*
X154043639Y-122556401D02*
X154043639Y-121889735D01*
X155043639Y-122318306D01*
%TO.C,R2*%
X138346852Y-113059380D02*
X138013519Y-112583190D01*
X137775423Y-113059380D02*
X137775423Y-112059380D01*
X138156376Y-112059380D01*
X138251614Y-112107000D01*
X138299233Y-112154619D01*
X138346852Y-112249857D01*
X138346852Y-112392714D01*
X138299233Y-112487952D01*
X138251614Y-112535571D01*
X138156376Y-112583190D01*
X137775423Y-112583190D01*
X138727804Y-112154619D02*
X138775423Y-112107000D01*
X138870661Y-112059380D01*
X139108757Y-112059380D01*
X139203995Y-112107000D01*
X139251614Y-112154619D01*
X139299233Y-112249857D01*
X139299233Y-112345095D01*
X139251614Y-112487952D01*
X138680185Y-113059380D01*
X139299233Y-113059380D01*
%TO.C,D2*%
X180145010Y-137272354D02*
X179145010Y-137272354D01*
X179145010Y-137034259D01*
X179192630Y-136891401D01*
X179287868Y-136796163D01*
X179383106Y-136748544D01*
X179573582Y-136700925D01*
X179716439Y-136700925D01*
X179906915Y-136748544D01*
X180002153Y-136796163D01*
X180097391Y-136891401D01*
X180145010Y-137034259D01*
X180145010Y-137272354D01*
X179240249Y-136319973D02*
X179192630Y-136272354D01*
X179145010Y-136177116D01*
X179145010Y-135939020D01*
X179192630Y-135843782D01*
X179240249Y-135796163D01*
X179335487Y-135748544D01*
X179430725Y-135748544D01*
X179573582Y-135796163D01*
X180145010Y-136367592D01*
X180145010Y-135748544D01*
X176732925Y-137812354D02*
X176732925Y-137336163D01*
X177018639Y-137907592D02*
X176018639Y-137574259D01*
X177018639Y-137240925D01*
%TO.C,J1*%
X114227925Y-131906639D02*
X114227925Y-132620925D01*
X114180306Y-132763782D01*
X114085068Y-132859020D01*
X113942211Y-132906639D01*
X113846973Y-132906639D01*
X115227925Y-132906639D02*
X114656497Y-132906639D01*
X114942211Y-132906639D02*
X114942211Y-131906639D01*
X114846973Y-132049497D01*
X114751735Y-132144735D01*
X114656497Y-132192354D01*
%TO.C,R20*%
X158683639Y-137177116D02*
X158207449Y-137510449D01*
X158683639Y-137748544D02*
X157683639Y-137748544D01*
X157683639Y-137367592D01*
X157731259Y-137272354D01*
X157778878Y-137224735D01*
X157874116Y-137177116D01*
X158016973Y-137177116D01*
X158112211Y-137224735D01*
X158159830Y-137272354D01*
X158207449Y-137367592D01*
X158207449Y-137748544D01*
X157778878Y-136796163D02*
X157731259Y-136748544D01*
X157683639Y-136653306D01*
X157683639Y-136415211D01*
X157731259Y-136319973D01*
X157778878Y-136272354D01*
X157874116Y-136224735D01*
X157969354Y-136224735D01*
X158112211Y-136272354D01*
X158683639Y-136843782D01*
X158683639Y-136224735D01*
X157683639Y-135605687D02*
X157683639Y-135510449D01*
X157731259Y-135415211D01*
X157778878Y-135367592D01*
X157874116Y-135319973D01*
X158064592Y-135272354D01*
X158302687Y-135272354D01*
X158493163Y-135319973D01*
X158588401Y-135367592D01*
X158636020Y-135415211D01*
X158683639Y-135510449D01*
X158683639Y-135605687D01*
X158636020Y-135700925D01*
X158588401Y-135748544D01*
X158493163Y-135796163D01*
X158302687Y-135843782D01*
X158064592Y-135843782D01*
X157874116Y-135796163D01*
X157778878Y-135748544D01*
X157731259Y-135700925D01*
X157683639Y-135605687D01*
%TO.C,R21*%
X160233401Y-133261639D02*
X159900068Y-132785449D01*
X159661973Y-133261639D02*
X159661973Y-132261639D01*
X160042925Y-132261639D01*
X160138163Y-132309259D01*
X160185782Y-132356878D01*
X160233401Y-132452116D01*
X160233401Y-132594973D01*
X160185782Y-132690211D01*
X160138163Y-132737830D01*
X160042925Y-132785449D01*
X159661973Y-132785449D01*
X160614354Y-132356878D02*
X160661973Y-132309259D01*
X160757211Y-132261639D01*
X160995306Y-132261639D01*
X161090544Y-132309259D01*
X161138163Y-132356878D01*
X161185782Y-132452116D01*
X161185782Y-132547354D01*
X161138163Y-132690211D01*
X160566735Y-133261639D01*
X161185782Y-133261639D01*
X162138163Y-133261639D02*
X161566735Y-133261639D01*
X161852449Y-133261639D02*
X161852449Y-132261639D01*
X161757211Y-132404497D01*
X161661973Y-132499735D01*
X161566735Y-132547354D01*
%TO.C,J4*%
X124420899Y-144605333D02*
X125135185Y-144605333D01*
X125278042Y-144652952D01*
X125373280Y-144748190D01*
X125420899Y-144891047D01*
X125420899Y-144986285D01*
X124754233Y-143700571D02*
X125420899Y-143700571D01*
X124373280Y-143938666D02*
X125087566Y-144176761D01*
X125087566Y-143557714D01*
%TO.C,J2*%
X165485185Y-144442380D02*
X165485185Y-145156666D01*
X165437566Y-145299523D01*
X165342328Y-145394761D01*
X165199471Y-145442380D01*
X165104233Y-145442380D01*
X165913757Y-144537619D02*
X165961376Y-144490000D01*
X166056614Y-144442380D01*
X166294709Y-144442380D01*
X166389947Y-144490000D01*
X166437566Y-144537619D01*
X166485185Y-144632857D01*
X166485185Y-144728095D01*
X166437566Y-144870952D01*
X165866138Y-145442380D01*
X166485185Y-145442380D01*
%TO.C,TP4*%
X153888614Y-145324380D02*
X154460042Y-145324380D01*
X154174328Y-146324380D02*
X154174328Y-145324380D01*
X154793376Y-146324380D02*
X154793376Y-145324380D01*
X155174328Y-145324380D01*
X155269566Y-145372000D01*
X155317185Y-145419619D01*
X155364804Y-145514857D01*
X155364804Y-145657714D01*
X155317185Y-145752952D01*
X155269566Y-145800571D01*
X155174328Y-145848190D01*
X154793376Y-145848190D01*
X156221947Y-145657714D02*
X156221947Y-146324380D01*
X155983852Y-145276761D02*
X155745757Y-145991047D01*
X156364804Y-145991047D01*
%TO.C,C4*%
X140968401Y-134910925D02*
X141016020Y-134958544D01*
X141063639Y-135101401D01*
X141063639Y-135196639D01*
X141016020Y-135339497D01*
X140920782Y-135434735D01*
X140825544Y-135482354D01*
X140635068Y-135529973D01*
X140492211Y-135529973D01*
X140301735Y-135482354D01*
X140206497Y-135434735D01*
X140111259Y-135339497D01*
X140063639Y-135196639D01*
X140063639Y-135101401D01*
X140111259Y-134958544D01*
X140158878Y-134910925D01*
X140396973Y-134053782D02*
X141063639Y-134053782D01*
X140016020Y-134291878D02*
X140730306Y-134529973D01*
X140730306Y-133910925D01*
%TO.C,U1*%
X151730899Y-126618904D02*
X152540423Y-126618904D01*
X152635661Y-126571285D01*
X152683280Y-126523666D01*
X152730899Y-126428428D01*
X152730899Y-126237952D01*
X152683280Y-126142714D01*
X152635661Y-126095095D01*
X152540423Y-126047476D01*
X151730899Y-126047476D01*
X152730899Y-125047476D02*
X152730899Y-125618904D01*
X152730899Y-125333190D02*
X151730899Y-125333190D01*
X151873757Y-125428428D01*
X151968995Y-125523666D01*
X152016614Y-125618904D01*
%TO.C,RV1*%
X176668280Y-118162380D02*
X176334947Y-117686190D01*
X176096852Y-118162380D02*
X176096852Y-117162380D01*
X176477804Y-117162380D01*
X176573042Y-117210000D01*
X176620661Y-117257619D01*
X176668280Y-117352857D01*
X176668280Y-117495714D01*
X176620661Y-117590952D01*
X176573042Y-117638571D01*
X176477804Y-117686190D01*
X176096852Y-117686190D01*
X176953995Y-117162380D02*
X177287328Y-118162380D01*
X177620661Y-117162380D01*
X178477804Y-118162380D02*
X177906376Y-118162380D01*
X178192090Y-118162380D02*
X178192090Y-117162380D01*
X178096852Y-117305238D01*
X178001614Y-117400476D01*
X177906376Y-117448095D01*
%TO.C,JP2*%
X146717925Y-131446639D02*
X146717925Y-132160925D01*
X146670306Y-132303782D01*
X146575068Y-132399020D01*
X146432211Y-132446639D01*
X146336973Y-132446639D01*
X147194116Y-132446639D02*
X147194116Y-131446639D01*
X147575068Y-131446639D01*
X147670306Y-131494259D01*
X147717925Y-131541878D01*
X147765544Y-131637116D01*
X147765544Y-131779973D01*
X147717925Y-131875211D01*
X147670306Y-131922830D01*
X147575068Y-131970449D01*
X147194116Y-131970449D01*
X148146497Y-131541878D02*
X148194116Y-131494259D01*
X148289354Y-131446639D01*
X148527449Y-131446639D01*
X148622687Y-131494259D01*
X148670306Y-131541878D01*
X148717925Y-131637116D01*
X148717925Y-131732354D01*
X148670306Y-131875211D01*
X148098878Y-132446639D01*
X148717925Y-132446639D01*
%TO.C,U5*%
X126656854Y-119696639D02*
X126656854Y-120506163D01*
X126704473Y-120601401D01*
X126752092Y-120649020D01*
X126847330Y-120696639D01*
X127037806Y-120696639D01*
X127133044Y-120649020D01*
X127180663Y-120601401D01*
X127228282Y-120506163D01*
X127228282Y-119696639D01*
X128180663Y-119696639D02*
X127704473Y-119696639D01*
X127656854Y-120172830D01*
X127704473Y-120125211D01*
X127799711Y-120077592D01*
X128037806Y-120077592D01*
X128133044Y-120125211D01*
X128180663Y-120172830D01*
X128228282Y-120268068D01*
X128228282Y-120506163D01*
X128180663Y-120601401D01*
X128133044Y-120649020D01*
X128037806Y-120696639D01*
X127799711Y-120696639D01*
X127704473Y-120649020D01*
X127656854Y-120601401D01*
%TO.C,TP1*%
X158968614Y-145324380D02*
X159540042Y-145324380D01*
X159254328Y-146324380D02*
X159254328Y-145324380D01*
X159873376Y-146324380D02*
X159873376Y-145324380D01*
X160254328Y-145324380D01*
X160349566Y-145372000D01*
X160397185Y-145419619D01*
X160444804Y-145514857D01*
X160444804Y-145657714D01*
X160397185Y-145752952D01*
X160349566Y-145800571D01*
X160254328Y-145848190D01*
X159873376Y-145848190D01*
X161397185Y-146324380D02*
X160825757Y-146324380D01*
X161111471Y-146324380D02*
X161111471Y-145324380D01*
X161016233Y-145467238D01*
X160920995Y-145562476D01*
X160825757Y-145610095D01*
%TO.C,C1*%
X126998401Y-138720925D02*
X127046020Y-138768544D01*
X127093639Y-138911401D01*
X127093639Y-139006639D01*
X127046020Y-139149497D01*
X126950782Y-139244735D01*
X126855544Y-139292354D01*
X126665068Y-139339973D01*
X126522211Y-139339973D01*
X126331735Y-139292354D01*
X126236497Y-139244735D01*
X126141259Y-139149497D01*
X126093639Y-139006639D01*
X126093639Y-138911401D01*
X126141259Y-138768544D01*
X126188878Y-138720925D01*
X127093639Y-137768544D02*
X127093639Y-138339973D01*
X127093639Y-138054259D02*
X126093639Y-138054259D01*
X126236497Y-138149497D01*
X126331735Y-138244735D01*
X126379354Y-138339973D01*
%TO.C,R16*%
X155508639Y-123842116D02*
X155032449Y-124175449D01*
X155508639Y-124413544D02*
X154508639Y-124413544D01*
X154508639Y-124032592D01*
X154556259Y-123937354D01*
X154603878Y-123889735D01*
X154699116Y-123842116D01*
X154841973Y-123842116D01*
X154937211Y-123889735D01*
X154984830Y-123937354D01*
X155032449Y-124032592D01*
X155032449Y-124413544D01*
X155508639Y-122889735D02*
X155508639Y-123461163D01*
X155508639Y-123175449D02*
X154508639Y-123175449D01*
X154651497Y-123270687D01*
X154746735Y-123365925D01*
X154794354Y-123461163D01*
X154508639Y-122032592D02*
X154508639Y-122223068D01*
X154556259Y-122318306D01*
X154603878Y-122365925D01*
X154746735Y-122461163D01*
X154937211Y-122508782D01*
X155318163Y-122508782D01*
X155413401Y-122461163D01*
X155461020Y-122413544D01*
X155508639Y-122318306D01*
X155508639Y-122127830D01*
X155461020Y-122032592D01*
X155413401Y-121984973D01*
X155318163Y-121937354D01*
X155080068Y-121937354D01*
X154984830Y-121984973D01*
X154937211Y-122032592D01*
X154889592Y-122127830D01*
X154889592Y-122318306D01*
X154937211Y-122413544D01*
X154984830Y-122461163D01*
X155080068Y-122508782D01*
%TO.C,SW1*%
X125750185Y-142676761D02*
X125893042Y-142724380D01*
X126131138Y-142724380D01*
X126226376Y-142676761D01*
X126273995Y-142629142D01*
X126321614Y-142533904D01*
X126321614Y-142438666D01*
X126273995Y-142343428D01*
X126226376Y-142295809D01*
X126131138Y-142248190D01*
X125940661Y-142200571D01*
X125845423Y-142152952D01*
X125797804Y-142105333D01*
X125750185Y-142010095D01*
X125750185Y-141914857D01*
X125797804Y-141819619D01*
X125845423Y-141772000D01*
X125940661Y-141724380D01*
X126178757Y-141724380D01*
X126321614Y-141772000D01*
X126654947Y-141724380D02*
X126893042Y-142724380D01*
X127083519Y-142010095D01*
X127273995Y-142724380D01*
X127512090Y-141724380D01*
X128416852Y-142724380D02*
X127845423Y-142724380D01*
X128131138Y-142724380D02*
X128131138Y-141724380D01*
X128035899Y-141867238D01*
X127940661Y-141962476D01*
X127845423Y-142010095D01*
%TO.C,D3*%
X178667268Y-137272354D02*
X177667268Y-137272354D01*
X177667268Y-137034259D01*
X177714888Y-136891401D01*
X177810126Y-136796163D01*
X177905364Y-136748544D01*
X178095840Y-136700925D01*
X178238697Y-136700925D01*
X178429173Y-136748544D01*
X178524411Y-136796163D01*
X178619649Y-136891401D01*
X178667268Y-137034259D01*
X178667268Y-137272354D01*
X177667268Y-136367592D02*
X177667268Y-135748544D01*
X178048221Y-136081878D01*
X178048221Y-135939020D01*
X178095840Y-135843782D01*
X178143459Y-135796163D01*
X178238697Y-135748544D01*
X178476792Y-135748544D01*
X178572030Y-135796163D01*
X178619649Y-135843782D01*
X178667268Y-135939020D01*
X178667268Y-136224735D01*
X178619649Y-136319973D01*
X178572030Y-136367592D01*
X181507925Y-135732354D02*
X181507925Y-135256163D01*
X181793639Y-135827592D02*
X180793639Y-135494259D01*
X181793639Y-135160925D01*
%TO.C,TP3*%
X151348614Y-145324380D02*
X151920042Y-145324380D01*
X151634328Y-146324380D02*
X151634328Y-145324380D01*
X152253376Y-146324380D02*
X152253376Y-145324380D01*
X152634328Y-145324380D01*
X152729566Y-145372000D01*
X152777185Y-145419619D01*
X152824804Y-145514857D01*
X152824804Y-145657714D01*
X152777185Y-145752952D01*
X152729566Y-145800571D01*
X152634328Y-145848190D01*
X152253376Y-145848190D01*
X153158138Y-145324380D02*
X153777185Y-145324380D01*
X153443852Y-145705333D01*
X153586709Y-145705333D01*
X153681947Y-145752952D01*
X153729566Y-145800571D01*
X153777185Y-145895809D01*
X153777185Y-146133904D01*
X153729566Y-146229142D01*
X153681947Y-146276761D01*
X153586709Y-146324380D01*
X153300995Y-146324380D01*
X153205757Y-146276761D01*
X153158138Y-146229142D01*
%TO.C,C13*%
X161483401Y-132856401D02*
X161435782Y-132904020D01*
X161292925Y-132951639D01*
X161197687Y-132951639D01*
X161054830Y-132904020D01*
X160959592Y-132808782D01*
X160911973Y-132713544D01*
X160864354Y-132523068D01*
X160864354Y-132380211D01*
X160911973Y-132189735D01*
X160959592Y-132094497D01*
X161054830Y-131999259D01*
X161197687Y-131951639D01*
X161292925Y-131951639D01*
X161435782Y-131999259D01*
X161483401Y-132046878D01*
X162435782Y-132951639D02*
X161864354Y-132951639D01*
X162150068Y-132951639D02*
X162150068Y-131951639D01*
X162054830Y-132094497D01*
X161959592Y-132189735D01*
X161864354Y-132237354D01*
X162769116Y-131951639D02*
X163388163Y-131951639D01*
X163054830Y-132332592D01*
X163197687Y-132332592D01*
X163292925Y-132380211D01*
X163340544Y-132427830D01*
X163388163Y-132523068D01*
X163388163Y-132761163D01*
X163340544Y-132856401D01*
X163292925Y-132904020D01*
X163197687Y-132951639D01*
X162911973Y-132951639D01*
X162816735Y-132904020D01*
X162769116Y-132856401D01*
%TO.C,BZ1*%
X156165306Y-121437830D02*
X156308163Y-121485449D01*
X156355782Y-121533068D01*
X156403401Y-121628306D01*
X156403401Y-121771163D01*
X156355782Y-121866401D01*
X156308163Y-121914020D01*
X156212925Y-121961639D01*
X155831973Y-121961639D01*
X155831973Y-120961639D01*
X156165306Y-120961639D01*
X156260544Y-121009259D01*
X156308163Y-121056878D01*
X156355782Y-121152116D01*
X156355782Y-121247354D01*
X156308163Y-121342592D01*
X156260544Y-121390211D01*
X156165306Y-121437830D01*
X155831973Y-121437830D01*
X156736735Y-120961639D02*
X157403401Y-120961639D01*
X156736735Y-121961639D01*
X157403401Y-121961639D01*
X158308163Y-121961639D02*
X157736735Y-121961639D01*
X158022449Y-121961639D02*
X158022449Y-120961639D01*
X157927211Y-121104497D01*
X157831973Y-121199735D01*
X157736735Y-121247354D01*
X160475306Y-116920687D02*
X161237211Y-116920687D01*
X160856259Y-117301639D02*
X160856259Y-116539735D01*
%TO.C,C3*%
X146048401Y-134910925D02*
X146096020Y-134958544D01*
X146143639Y-135101401D01*
X146143639Y-135196639D01*
X146096020Y-135339497D01*
X146000782Y-135434735D01*
X145905544Y-135482354D01*
X145715068Y-135529973D01*
X145572211Y-135529973D01*
X145381735Y-135482354D01*
X145286497Y-135434735D01*
X145191259Y-135339497D01*
X145143639Y-135196639D01*
X145143639Y-135101401D01*
X145191259Y-134958544D01*
X145238878Y-134910925D01*
X145143639Y-134577592D02*
X145143639Y-133958544D01*
X145524592Y-134291878D01*
X145524592Y-134149020D01*
X145572211Y-134053782D01*
X145619830Y-134006163D01*
X145715068Y-133958544D01*
X145953163Y-133958544D01*
X146048401Y-134006163D01*
X146096020Y-134053782D01*
X146143639Y-134149020D01*
X146143639Y-134434735D01*
X146096020Y-134529973D01*
X146048401Y-134577592D01*
%TO.C,R15*%
X132065899Y-118879857D02*
X131589709Y-119213190D01*
X132065899Y-119451285D02*
X131065899Y-119451285D01*
X131065899Y-119070333D01*
X131113519Y-118975095D01*
X131161138Y-118927476D01*
X131256376Y-118879857D01*
X131399233Y-118879857D01*
X131494471Y-118927476D01*
X131542090Y-118975095D01*
X131589709Y-119070333D01*
X131589709Y-119451285D01*
X132065899Y-117927476D02*
X132065899Y-118498904D01*
X132065899Y-118213190D02*
X131065899Y-118213190D01*
X131208757Y-118308428D01*
X131303995Y-118403666D01*
X131351614Y-118498904D01*
X131065899Y-117022714D02*
X131065899Y-117498904D01*
X131542090Y-117546523D01*
X131494471Y-117498904D01*
X131446852Y-117403666D01*
X131446852Y-117165571D01*
X131494471Y-117070333D01*
X131542090Y-117022714D01*
X131637328Y-116975095D01*
X131875423Y-116975095D01*
X131970661Y-117022714D01*
X132018280Y-117070333D01*
X132065899Y-117165571D01*
X132065899Y-117403666D01*
X132018280Y-117498904D01*
X131970661Y-117546523D01*
%TO.C,U3*%
X184593639Y-115901163D02*
X185403163Y-115901163D01*
X185498401Y-115853544D01*
X185546020Y-115805925D01*
X185593639Y-115710687D01*
X185593639Y-115520211D01*
X185546020Y-115424973D01*
X185498401Y-115377354D01*
X185403163Y-115329735D01*
X184593639Y-115329735D01*
X184593639Y-114948782D02*
X184593639Y-114329735D01*
X184974592Y-114663068D01*
X184974592Y-114520211D01*
X185022211Y-114424973D01*
X185069830Y-114377354D01*
X185165068Y-114329735D01*
X185403163Y-114329735D01*
X185498401Y-114377354D01*
X185546020Y-114424973D01*
X185593639Y-114520211D01*
X185593639Y-114805925D01*
X185546020Y-114901163D01*
X185498401Y-114948782D01*
%TO.C,C12*%
X160213401Y-122911401D02*
X160165782Y-122959020D01*
X160022925Y-123006639D01*
X159927687Y-123006639D01*
X159784830Y-122959020D01*
X159689592Y-122863782D01*
X159641973Y-122768544D01*
X159594354Y-122578068D01*
X159594354Y-122435211D01*
X159641973Y-122244735D01*
X159689592Y-122149497D01*
X159784830Y-122054259D01*
X159927687Y-122006639D01*
X160022925Y-122006639D01*
X160165782Y-122054259D01*
X160213401Y-122101878D01*
X161165782Y-123006639D02*
X160594354Y-123006639D01*
X160880068Y-123006639D02*
X160880068Y-122006639D01*
X160784830Y-122149497D01*
X160689592Y-122244735D01*
X160594354Y-122292354D01*
X161546735Y-122101878D02*
X161594354Y-122054259D01*
X161689592Y-122006639D01*
X161927687Y-122006639D01*
X162022925Y-122054259D01*
X162070544Y-122101878D01*
X162118163Y-122197116D01*
X162118163Y-122292354D01*
X162070544Y-122435211D01*
X161499116Y-123006639D01*
X162118163Y-123006639D01*
%TO.C,C5*%
X177783401Y-127175925D02*
X177831020Y-127223544D01*
X177878639Y-127366401D01*
X177878639Y-127461639D01*
X177831020Y-127604497D01*
X177735782Y-127699735D01*
X177640544Y-127747354D01*
X177450068Y-127794973D01*
X177307211Y-127794973D01*
X177116735Y-127747354D01*
X177021497Y-127699735D01*
X176926259Y-127604497D01*
X176878639Y-127461639D01*
X176878639Y-127366401D01*
X176926259Y-127223544D01*
X176973878Y-127175925D01*
X176878639Y-126271163D02*
X176878639Y-126747354D01*
X177354830Y-126794973D01*
X177307211Y-126747354D01*
X177259592Y-126652116D01*
X177259592Y-126414020D01*
X177307211Y-126318782D01*
X177354830Y-126271163D01*
X177450068Y-126223544D01*
X177688163Y-126223544D01*
X177783401Y-126271163D01*
X177831020Y-126318782D01*
X177878639Y-126414020D01*
X177878639Y-126652116D01*
X177831020Y-126747354D01*
X177783401Y-126794973D01*
%TO.C,C2*%
X132229592Y-131736401D02*
X132181973Y-131784020D01*
X132039116Y-131831639D01*
X131943878Y-131831639D01*
X131801020Y-131784020D01*
X131705782Y-131688782D01*
X131658163Y-131593544D01*
X131610544Y-131403068D01*
X131610544Y-131260211D01*
X131658163Y-131069735D01*
X131705782Y-130974497D01*
X131801020Y-130879259D01*
X131943878Y-130831639D01*
X132039116Y-130831639D01*
X132181973Y-130879259D01*
X132229592Y-130926878D01*
X132610544Y-130926878D02*
X132658163Y-130879259D01*
X132753401Y-130831639D01*
X132991497Y-130831639D01*
X133086735Y-130879259D01*
X133134354Y-130926878D01*
X133181973Y-131022116D01*
X133181973Y-131117354D01*
X133134354Y-131260211D01*
X132562925Y-131831639D01*
X133181973Y-131831639D01*
%TO.C,D1*%
X137258163Y-137056639D02*
X137258163Y-136056639D01*
X137496259Y-136056639D01*
X137639116Y-136104259D01*
X137734354Y-136199497D01*
X137781973Y-136294735D01*
X137829592Y-136485211D01*
X137829592Y-136628068D01*
X137781973Y-136818544D01*
X137734354Y-136913782D01*
X137639116Y-137009020D01*
X137496259Y-137056639D01*
X137258163Y-137056639D01*
X138781973Y-137056639D02*
X138210544Y-137056639D01*
X138496259Y-137056639D02*
X138496259Y-136056639D01*
X138401020Y-136199497D01*
X138305782Y-136294735D01*
X138210544Y-136342354D01*
X132654354Y-137426639D02*
X132654354Y-136426639D01*
X133225782Y-137426639D02*
X132797211Y-136855211D01*
X133225782Y-136426639D02*
X132654354Y-136998068D01*
%TO.C,R10*%
X121478401Y-115481639D02*
X121145068Y-115005449D01*
X120906973Y-115481639D02*
X120906973Y-114481639D01*
X121287925Y-114481639D01*
X121383163Y-114529259D01*
X121430782Y-114576878D01*
X121478401Y-114672116D01*
X121478401Y-114814973D01*
X121430782Y-114910211D01*
X121383163Y-114957830D01*
X121287925Y-115005449D01*
X120906973Y-115005449D01*
X122430782Y-115481639D02*
X121859354Y-115481639D01*
X122145068Y-115481639D02*
X122145068Y-114481639D01*
X122049830Y-114624497D01*
X121954592Y-114719735D01*
X121859354Y-114767354D01*
X123049830Y-114481639D02*
X123145068Y-114481639D01*
X123240306Y-114529259D01*
X123287925Y-114576878D01*
X123335544Y-114672116D01*
X123383163Y-114862592D01*
X123383163Y-115100687D01*
X123335544Y-115291163D01*
X123287925Y-115386401D01*
X123240306Y-115434020D01*
X123145068Y-115481639D01*
X123049830Y-115481639D01*
X122954592Y-115434020D01*
X122906973Y-115386401D01*
X122859354Y-115291163D01*
X122811735Y-115100687D01*
X122811735Y-114862592D01*
X122859354Y-114672116D01*
X122906973Y-114576878D01*
X122954592Y-114529259D01*
X123049830Y-114481639D01*
D11*
%TO.C,IC1*%
X128410782Y-137774020D02*
X127140782Y-137774020D01*
X128289830Y-136443544D02*
X128350306Y-136504020D01*
X128410782Y-136685449D01*
X128410782Y-136806401D01*
X128350306Y-136987830D01*
X128229354Y-137108782D01*
X128108401Y-137169259D01*
X127866497Y-137229735D01*
X127685068Y-137229735D01*
X127443163Y-137169259D01*
X127322211Y-137108782D01*
X127201259Y-136987830D01*
X127140782Y-136806401D01*
X127140782Y-136685449D01*
X127201259Y-136504020D01*
X127261735Y-136443544D01*
X128410782Y-135234020D02*
X128410782Y-135959735D01*
X128410782Y-135596878D02*
X127140782Y-135596878D01*
X127322211Y-135717830D01*
X127443163Y-135838782D01*
X127503639Y-135959735D01*
D10*
%TO.C,JP4*%
X146717925Y-133986639D02*
X146717925Y-134700925D01*
X146670306Y-134843782D01*
X146575068Y-134939020D01*
X146432211Y-134986639D01*
X146336973Y-134986639D01*
X147194116Y-134986639D02*
X147194116Y-133986639D01*
X147575068Y-133986639D01*
X147670306Y-134034259D01*
X147717925Y-134081878D01*
X147765544Y-134177116D01*
X147765544Y-134319973D01*
X147717925Y-134415211D01*
X147670306Y-134462830D01*
X147575068Y-134510449D01*
X147194116Y-134510449D01*
X148622687Y-134319973D02*
X148622687Y-134986639D01*
X148384592Y-133939020D02*
X148146497Y-134653306D01*
X148765544Y-134653306D01*
%TO.C,U2*%
X168969354Y-119681639D02*
X168969354Y-120491163D01*
X169016973Y-120586401D01*
X169064592Y-120634020D01*
X169159830Y-120681639D01*
X169350306Y-120681639D01*
X169445544Y-120634020D01*
X169493163Y-120586401D01*
X169540782Y-120491163D01*
X169540782Y-119681639D01*
X169969354Y-119776878D02*
X170016973Y-119729259D01*
X170112211Y-119681639D01*
X170350306Y-119681639D01*
X170445544Y-119729259D01*
X170493163Y-119776878D01*
X170540782Y-119872116D01*
X170540782Y-119967354D01*
X170493163Y-120110211D01*
X169921735Y-120681639D01*
X170540782Y-120681639D01*
%TO.C,J3*%
X185287925Y-144031639D02*
X185287925Y-144745925D01*
X185240306Y-144888782D01*
X185145068Y-144984020D01*
X185002211Y-145031639D01*
X184906973Y-145031639D01*
X185668878Y-144031639D02*
X186287925Y-144031639D01*
X185954592Y-144412592D01*
X186097449Y-144412592D01*
X186192687Y-144460211D01*
X186240306Y-144507830D01*
X186287925Y-144603068D01*
X186287925Y-144841163D01*
X186240306Y-144936401D01*
X186192687Y-144984020D01*
X186097449Y-145031639D01*
X185811735Y-145031639D01*
X185716497Y-144984020D01*
X185668878Y-144936401D01*
%TO.C,Q1*%
X146673280Y-111414619D02*
X146578042Y-111367000D01*
X146482804Y-111271761D01*
X146339947Y-111128904D01*
X146244709Y-111081285D01*
X146149471Y-111081285D01*
X146197090Y-111319380D02*
X146101852Y-111271761D01*
X146006614Y-111176523D01*
X145958995Y-110986047D01*
X145958995Y-110652714D01*
X146006614Y-110462238D01*
X146101852Y-110367000D01*
X146197090Y-110319380D01*
X146387566Y-110319380D01*
X146482804Y-110367000D01*
X146578042Y-110462238D01*
X146625661Y-110652714D01*
X146625661Y-110986047D01*
X146578042Y-111176523D01*
X146482804Y-111271761D01*
X146387566Y-111319380D01*
X146197090Y-111319380D01*
X147578042Y-111319380D02*
X147006614Y-111319380D01*
X147292328Y-111319380D02*
X147292328Y-110319380D01*
X147197090Y-110462238D01*
X147101852Y-110557476D01*
X147006614Y-110605095D01*
%TO.C,D4*%
X178533163Y-120690268D02*
X178533163Y-119690268D01*
X178771259Y-119690268D01*
X178914116Y-119737888D01*
X179009354Y-119833126D01*
X179056973Y-119928364D01*
X179104592Y-120118840D01*
X179104592Y-120261697D01*
X179056973Y-120452173D01*
X179009354Y-120547411D01*
X178914116Y-120642649D01*
X178771259Y-120690268D01*
X178533163Y-120690268D01*
X179961735Y-120023602D02*
X179961735Y-120690268D01*
X179723639Y-119642649D02*
X179485544Y-120356935D01*
X180104592Y-120356935D01*
X180073163Y-123530925D02*
X180549354Y-123530925D01*
X179977925Y-123816639D02*
X180311259Y-122816639D01*
X180644592Y-123816639D01*
%TO.C,R3*%
X164499592Y-116581639D02*
X164166259Y-116105449D01*
X163928163Y-116581639D02*
X163928163Y-115581639D01*
X164309116Y-115581639D01*
X164404354Y-115629259D01*
X164451973Y-115676878D01*
X164499592Y-115772116D01*
X164499592Y-115914973D01*
X164451973Y-116010211D01*
X164404354Y-116057830D01*
X164309116Y-116105449D01*
X163928163Y-116105449D01*
X164832925Y-115581639D02*
X165451973Y-115581639D01*
X165118639Y-115962592D01*
X165261497Y-115962592D01*
X165356735Y-116010211D01*
X165404354Y-116057830D01*
X165451973Y-116153068D01*
X165451973Y-116391163D01*
X165404354Y-116486401D01*
X165356735Y-116534020D01*
X165261497Y-116581639D01*
X164975782Y-116581639D01*
X164880544Y-116534020D01*
X164832925Y-116486401D01*
%TO.C,C7*%
X121954592Y-118066401D02*
X121906973Y-118114020D01*
X121764116Y-118161639D01*
X121668878Y-118161639D01*
X121526020Y-118114020D01*
X121430782Y-118018782D01*
X121383163Y-117923544D01*
X121335544Y-117733068D01*
X121335544Y-117590211D01*
X121383163Y-117399735D01*
X121430782Y-117304497D01*
X121526020Y-117209259D01*
X121668878Y-117161639D01*
X121764116Y-117161639D01*
X121906973Y-117209259D01*
X121954592Y-117256878D01*
X122287925Y-117161639D02*
X122954592Y-117161639D01*
X122526020Y-118161639D01*
%TO.C,JP3*%
X146717925Y-136526639D02*
X146717925Y-137240925D01*
X146670306Y-137383782D01*
X146575068Y-137479020D01*
X146432211Y-137526639D01*
X146336973Y-137526639D01*
X147194116Y-137526639D02*
X147194116Y-136526639D01*
X147575068Y-136526639D01*
X147670306Y-136574259D01*
X147717925Y-136621878D01*
X147765544Y-136717116D01*
X147765544Y-136859973D01*
X147717925Y-136955211D01*
X147670306Y-137002830D01*
X147575068Y-137050449D01*
X147194116Y-137050449D01*
X148098878Y-136526639D02*
X148717925Y-136526639D01*
X148384592Y-136907592D01*
X148527449Y-136907592D01*
X148622687Y-136955211D01*
X148670306Y-137002830D01*
X148717925Y-137098068D01*
X148717925Y-137336163D01*
X148670306Y-137431401D01*
X148622687Y-137479020D01*
X148527449Y-137526639D01*
X148241735Y-137526639D01*
X148146497Y-137479020D01*
X148098878Y-137431401D01*
%TO.C,C11*%
X153228401Y-126321401D02*
X153180782Y-126369020D01*
X153037925Y-126416639D01*
X152942687Y-126416639D01*
X152799830Y-126369020D01*
X152704592Y-126273782D01*
X152656973Y-126178544D01*
X152609354Y-125988068D01*
X152609354Y-125845211D01*
X152656973Y-125654735D01*
X152704592Y-125559497D01*
X152799830Y-125464259D01*
X152942687Y-125416639D01*
X153037925Y-125416639D01*
X153180782Y-125464259D01*
X153228401Y-125511878D01*
X154180782Y-126416639D02*
X153609354Y-126416639D01*
X153895068Y-126416639D02*
X153895068Y-125416639D01*
X153799830Y-125559497D01*
X153704592Y-125654735D01*
X153609354Y-125702354D01*
X155133163Y-126416639D02*
X154561735Y-126416639D01*
X154847449Y-126416639D02*
X154847449Y-125416639D01*
X154752211Y-125559497D01*
X154656973Y-125654735D01*
X154561735Y-125702354D01*
%TO.C,R9*%
X170477852Y-112932380D02*
X170144519Y-112456190D01*
X169906423Y-112932380D02*
X169906423Y-111932380D01*
X170287376Y-111932380D01*
X170382614Y-111980000D01*
X170430233Y-112027619D01*
X170477852Y-112122857D01*
X170477852Y-112265714D01*
X170430233Y-112360952D01*
X170382614Y-112408571D01*
X170287376Y-112456190D01*
X169906423Y-112456190D01*
X170954042Y-112932380D02*
X171144519Y-112932380D01*
X171239757Y-112884761D01*
X171287376Y-112837142D01*
X171382614Y-112694285D01*
X171430233Y-112503809D01*
X171430233Y-112122857D01*
X171382614Y-112027619D01*
X171334995Y-111980000D01*
X171239757Y-111932380D01*
X171049280Y-111932380D01*
X170954042Y-111980000D01*
X170906423Y-112027619D01*
X170858804Y-112122857D01*
X170858804Y-112360952D01*
X170906423Y-112456190D01*
X170954042Y-112503809D01*
X171049280Y-112551428D01*
X171239757Y-112551428D01*
X171334995Y-112503809D01*
X171382614Y-112456190D01*
X171430233Y-112360952D01*
%TO.C,TP5*%
X156428614Y-145324380D02*
X157000042Y-145324380D01*
X156714328Y-146324380D02*
X156714328Y-145324380D01*
X157333376Y-146324380D02*
X157333376Y-145324380D01*
X157714328Y-145324380D01*
X157809566Y-145372000D01*
X157857185Y-145419619D01*
X157904804Y-145514857D01*
X157904804Y-145657714D01*
X157857185Y-145752952D01*
X157809566Y-145800571D01*
X157714328Y-145848190D01*
X157333376Y-145848190D01*
X158809566Y-145324380D02*
X158333376Y-145324380D01*
X158285757Y-145800571D01*
X158333376Y-145752952D01*
X158428614Y-145705333D01*
X158666709Y-145705333D01*
X158761947Y-145752952D01*
X158809566Y-145800571D01*
X158857185Y-145895809D01*
X158857185Y-146133904D01*
X158809566Y-146229142D01*
X158761947Y-146276761D01*
X158666709Y-146324380D01*
X158428614Y-146324380D01*
X158333376Y-146276761D01*
X158285757Y-146229142D01*
D12*
%TO.C,R4*%
X156319195Y-115219259D02*
X157773323Y-115219259D01*
X156319195Y-113399259D02*
X157773323Y-113399259D01*
%TO.C,R18*%
X160129195Y-121019259D02*
X161583323Y-121019259D01*
X160129195Y-122839259D02*
X161583323Y-122839259D01*
%TO.C,R19*%
X154146259Y-137261323D02*
X154146259Y-135807195D01*
X152326259Y-137261323D02*
X152326259Y-135807195D01*
%TO.C,C14*%
X158856259Y-138599259D02*
X158856259Y-139224259D01*
X162896259Y-136384259D02*
X162896259Y-137009259D01*
X158856259Y-136384259D02*
X158856259Y-137009259D01*
X162896259Y-138599259D02*
X162896259Y-139224259D01*
X158856259Y-139224259D02*
X162896259Y-139224259D01*
X158856259Y-136384259D02*
X162896259Y-136384259D01*
%TO.C,R8*%
X175821259Y-126282195D02*
X175821259Y-127736323D01*
X177641259Y-126282195D02*
X177641259Y-127736323D01*
D10*
%TO.C,JP1*%
X124441259Y-135029259D02*
X123941259Y-135529259D01*
X119841259Y-135029259D02*
X119841259Y-134229259D01*
X123941259Y-135529259D02*
X120341259Y-135529259D01*
X124441259Y-134229259D02*
X124441259Y-135029259D01*
X119841259Y-134229259D02*
X120341259Y-133729259D01*
X123941259Y-133729259D02*
X124441259Y-134229259D01*
X120341259Y-135529259D02*
X119841259Y-135029259D01*
X120341259Y-133729259D02*
X123941259Y-133729259D01*
D12*
%TO.C,R1*%
X177274195Y-130544259D02*
X178728323Y-130544259D01*
X177274195Y-132364259D02*
X178728323Y-132364259D01*
%TO.C,TP2*%
X163470519Y-147320000D02*
G75*
G03*
X163470519Y-147320000I-700000J0D01*
G01*
%TO.C,R17*%
X155501259Y-123926323D02*
X155501259Y-122472195D01*
X157321259Y-123926323D02*
X157321259Y-122472195D01*
%TO.C,R2*%
X137786455Y-115337000D02*
X139240583Y-115337000D01*
X137786455Y-113517000D02*
X139240583Y-113517000D01*
%TO.C,D2*%
X177366259Y-135320630D02*
X177366259Y-137974259D01*
X178692630Y-133994259D02*
G75*
G03*
X178692630Y-133994259I-1326371J0D01*
G01*
%TO.C,J1*%
X108846259Y-130564259D02*
X108846259Y-129804259D01*
X114846259Y-128024259D02*
X108846259Y-128024259D01*
X114846259Y-130024259D02*
X108846259Y-130024259D01*
X114846259Y-130504259D02*
X108846259Y-130504259D01*
X120216259Y-131454259D02*
X118946259Y-131454259D01*
X114846259Y-131514259D02*
X117506259Y-131514259D01*
X108846259Y-127264259D02*
X114846259Y-127264259D01*
X120216259Y-130184259D02*
X120216259Y-131454259D01*
X114846259Y-130564259D02*
X108846259Y-130564259D01*
X117506259Y-126374259D02*
X114846259Y-126374259D01*
X114846259Y-130384259D02*
X108846259Y-130384259D01*
X117836259Y-129804259D02*
X117506259Y-129804259D01*
X114846259Y-130264259D02*
X108846259Y-130264259D01*
X114846259Y-130144259D02*
X108846259Y-130144259D01*
X114846259Y-129904259D02*
X108846259Y-129904259D01*
X114846259Y-123774259D02*
X114846259Y-131514259D01*
X117903330Y-128024259D02*
X117506259Y-128024259D01*
X117506259Y-123774259D02*
X114846259Y-123774259D01*
X108846259Y-124724259D02*
X114846259Y-124724259D01*
X108846259Y-125484259D02*
X108846259Y-124724259D01*
X117903330Y-124724259D02*
X117506259Y-124724259D01*
X114846259Y-125484259D02*
X108846259Y-125484259D01*
X108846259Y-128024259D02*
X108846259Y-127264259D01*
X117506259Y-131514259D02*
X117506259Y-123774259D01*
X108846259Y-129804259D02*
X114846259Y-129804259D01*
X117836259Y-130564259D02*
X117506259Y-130564259D01*
X117903330Y-127264259D02*
X117506259Y-127264259D01*
X117903330Y-125484259D02*
X117506259Y-125484259D01*
X117506259Y-128914259D02*
X114846259Y-128914259D01*
%TO.C,R20*%
X157321259Y-135807195D02*
X157321259Y-137261323D01*
X155501259Y-135807195D02*
X155501259Y-137261323D01*
%TO.C,R21*%
X160149195Y-135539259D02*
X161603323Y-135539259D01*
X160149195Y-133719259D02*
X161603323Y-133719259D01*
%TO.C,J4*%
X121368519Y-145602000D02*
X118768519Y-145602000D01*
X121368519Y-142942000D02*
X121368519Y-145602000D01*
X121368519Y-142942000D02*
X118768519Y-142942000D01*
X122638519Y-142942000D02*
X123968519Y-142942000D01*
X118768519Y-142942000D02*
X118768519Y-145602000D01*
X123968519Y-142942000D02*
X123968519Y-144272000D01*
%TO.C,J2*%
X164488519Y-148590000D02*
X164488519Y-148650000D01*
X164488519Y-148650000D02*
X167148519Y-148650000D01*
X164488519Y-148590000D02*
X167148519Y-148590000D01*
X164488519Y-147320000D02*
X164488519Y-145990000D01*
X164488519Y-145990000D02*
X165818519Y-145990000D01*
X167148519Y-148590000D02*
X167148519Y-148650000D01*
%TO.C,TP4*%
X155850519Y-147320000D02*
G75*
G03*
X155850519Y-147320000I-700000J0D01*
G01*
%TO.C,C4*%
X136521259Y-135384259D02*
X135379259Y-135384259D01*
X139011259Y-136025259D02*
X138201259Y-136025259D01*
X136521259Y-135184259D02*
X135327259Y-135184259D01*
X139231259Y-135665259D02*
X138201259Y-135665259D01*
X136521259Y-135905259D02*
X135626259Y-135905259D01*
X138839259Y-136225259D02*
X138201259Y-136225259D01*
X139377259Y-135264259D02*
X138201259Y-135264259D01*
X139417259Y-135064259D02*
X138201259Y-135064259D01*
X139250259Y-135625259D02*
X138201259Y-135625259D01*
X138556259Y-132474458D02*
X138556259Y-132874458D01*
X139435259Y-134904259D02*
X138201259Y-134904259D01*
X138877259Y-136185259D02*
X138201259Y-136185259D01*
X138220259Y-136665259D02*
X136502259Y-136665259D01*
X136521259Y-135825259D02*
X135576259Y-135825259D01*
X139423259Y-135024259D02*
X138201259Y-135024259D01*
X136521259Y-136185259D02*
X135845259Y-136185259D01*
X139343259Y-135384259D02*
X138201259Y-135384259D01*
X136521259Y-135585259D02*
X135454259Y-135585259D01*
X139355259Y-135344259D02*
X138201259Y-135344259D01*
X139069259Y-135945259D02*
X138201259Y-135945259D01*
X139395259Y-135184259D02*
X138201259Y-135184259D01*
X139285259Y-135545259D02*
X138201259Y-135545259D01*
X136521259Y-134984259D02*
X135294259Y-134984259D01*
X139169259Y-135785259D02*
X138201259Y-135785259D01*
X136521259Y-136065259D02*
X135742259Y-136065259D01*
X138980259Y-136065259D02*
X138201259Y-136065259D01*
X136521259Y-135424259D02*
X135393259Y-135424259D01*
X139366259Y-135304259D02*
X138201259Y-135304259D01*
X137898259Y-136785259D02*
X136824259Y-136785259D01*
X138374259Y-136585259D02*
X136348259Y-136585259D01*
X136521259Y-135865259D02*
X135601259Y-135865259D01*
X139146259Y-135825259D02*
X138201259Y-135825259D01*
X136521259Y-135465259D02*
X135407259Y-135465259D01*
X139268259Y-135585259D02*
X138201259Y-135585259D01*
X139191259Y-135745259D02*
X138201259Y-135745259D01*
X136521259Y-134744259D02*
X135281259Y-134744259D01*
X136521259Y-135224259D02*
X135336259Y-135224259D01*
X139438259Y-134864259D02*
X138201259Y-134864259D01*
X137731259Y-136825259D02*
X136991259Y-136825259D01*
X139428259Y-134984259D02*
X138201259Y-134984259D01*
X136521259Y-135264259D02*
X135345259Y-135264259D01*
X136521259Y-134824259D02*
X135282259Y-134824259D01*
X136521259Y-135985259D02*
X135681259Y-135985259D01*
X136521259Y-135344259D02*
X135367259Y-135344259D01*
X139441259Y-134744259D02*
X138201259Y-134744259D01*
X138756259Y-132674458D02*
X138356259Y-132674458D01*
X136521259Y-134784259D02*
X135281259Y-134784259D01*
X138757259Y-136305259D02*
X138201259Y-136305259D01*
X136521259Y-135705259D02*
X135510259Y-135705259D01*
X139041259Y-135985259D02*
X138201259Y-135985259D01*
X136521259Y-136025259D02*
X135711259Y-136025259D01*
X136521259Y-135545259D02*
X135437259Y-135545259D01*
X136521259Y-135144259D02*
X135319259Y-135144259D01*
X136521259Y-134904259D02*
X135287259Y-134904259D01*
X138948259Y-136105259D02*
X138201259Y-136105259D01*
X138665259Y-136385259D02*
X136057259Y-136385259D01*
X138799259Y-136265259D02*
X138201259Y-136265259D01*
X136521259Y-135505259D02*
X135421259Y-135505259D01*
X139121259Y-135865259D02*
X138201259Y-135865259D01*
X139441259Y-134784259D02*
X138201259Y-134784259D01*
X136521259Y-135104259D02*
X135311259Y-135104259D01*
X138301259Y-136625259D02*
X136421259Y-136625259D01*
X136521259Y-135665259D02*
X135491259Y-135665259D01*
X139212259Y-135705259D02*
X138201259Y-135705259D01*
X136521259Y-136145259D02*
X135809259Y-136145259D01*
X136521259Y-135064259D02*
X135305259Y-135064259D01*
X136521259Y-135024259D02*
X135299259Y-135024259D01*
X138025259Y-136745259D02*
X136697259Y-136745259D01*
X139315259Y-135465259D02*
X138201259Y-135465259D01*
X136521259Y-135625259D02*
X135472259Y-135625259D01*
X136521259Y-135945259D02*
X135653259Y-135945259D01*
X139386259Y-135224259D02*
X138201259Y-135224259D01*
X138441259Y-136545259D02*
X136281259Y-136545259D01*
X136521259Y-136305259D02*
X135965259Y-136305259D01*
X139301259Y-135505259D02*
X138201259Y-135505259D01*
X138615259Y-136425259D02*
X136107259Y-136425259D01*
X136521259Y-135745259D02*
X135531259Y-135745259D01*
X139096259Y-135905259D02*
X138201259Y-135905259D01*
X136521259Y-136225259D02*
X135883259Y-136225259D01*
X136521259Y-134864259D02*
X135284259Y-134864259D01*
X138129259Y-136705259D02*
X136593259Y-136705259D01*
X136521259Y-135785259D02*
X135553259Y-135785259D01*
X138561259Y-136465259D02*
X136161259Y-136465259D01*
X138913259Y-136145259D02*
X138201259Y-136145259D01*
X139440259Y-134824259D02*
X138201259Y-134824259D01*
X139432259Y-134944259D02*
X138201259Y-134944259D01*
X136521259Y-134944259D02*
X135290259Y-134944259D01*
X139411259Y-135104259D02*
X138201259Y-135104259D01*
X136521259Y-136265259D02*
X135923259Y-136265259D01*
X136521259Y-136105259D02*
X135774259Y-136105259D01*
X136521259Y-135304259D02*
X135356259Y-135304259D01*
X138503259Y-136505259D02*
X136219259Y-136505259D01*
X138712259Y-136345259D02*
X136010259Y-136345259D01*
X139329259Y-135424259D02*
X138201259Y-135424259D01*
X139403259Y-135144259D02*
X138201259Y-135144259D01*
X139481259Y-134744259D02*
G75*
G03*
X139481259Y-134744259I-2120000J0D01*
G01*
%TO.C,U1*%
X133378519Y-128107000D02*
X151278519Y-128107000D01*
X151278519Y-124857000D02*
X151278519Y-123607000D01*
X151278519Y-123607000D02*
X133378519Y-123607000D01*
X133378519Y-123607000D02*
X133378519Y-128107000D01*
X151278519Y-128107000D02*
X151278519Y-126857000D01*
X151278519Y-124857000D02*
G75*
G03*
X151278519Y-126857000I0J-1000000D01*
G01*
%TO.C,RV1*%
X173788519Y-116580000D02*
X173788519Y-114794000D01*
X180738519Y-116580000D02*
X173788519Y-116580000D01*
X180738519Y-113804000D02*
X180738519Y-111840000D01*
X173788519Y-113804000D02*
X173788519Y-111840000D01*
X180738519Y-111840000D02*
X173788519Y-111840000D01*
X180738519Y-116580000D02*
X180738519Y-114794000D01*
D10*
%TO.C,JP2*%
X145721259Y-134894259D02*
X145221259Y-134394259D01*
X145221259Y-134394259D02*
X145221259Y-133594259D01*
X149321259Y-133094259D02*
X149821259Y-133594259D01*
X149821259Y-134394259D02*
X149321259Y-134894259D01*
X149321259Y-134894259D02*
X145721259Y-134894259D01*
X145721259Y-133094259D02*
X149321259Y-133094259D01*
X149821259Y-133594259D02*
X149821259Y-134394259D01*
X145221259Y-133594259D02*
X145721259Y-133094259D01*
D12*
%TO.C,U5*%
X129668759Y-131524259D02*
X129668759Y-121244259D01*
X125168759Y-131524259D02*
X129668759Y-131524259D01*
X125168759Y-121244259D02*
X125168759Y-131524259D01*
X126418759Y-121244259D02*
X125168759Y-121244259D01*
X129668759Y-121244259D02*
X128418759Y-121244259D01*
X126418759Y-121244259D02*
G75*
G03*
X128418759Y-121244259I1000000J0D01*
G01*
%TO.C,TP1*%
X160930519Y-147320000D02*
G75*
G03*
X160930519Y-147320000I-700000J0D01*
G01*
%TO.C,C1*%
X124695259Y-140195259D02*
X122087259Y-140195259D01*
X125242259Y-139515259D02*
X124231259Y-139515259D01*
X122551259Y-139635259D02*
X121606259Y-139635259D01*
X122551259Y-138874259D02*
X121335259Y-138874259D01*
X125041259Y-139835259D02*
X124231259Y-139835259D01*
X122551259Y-139555259D02*
X121561259Y-139555259D01*
X122551259Y-139154259D02*
X121397259Y-139154259D01*
X124471259Y-140355259D02*
X122311259Y-140355259D01*
X123928259Y-140595259D02*
X122854259Y-140595259D01*
X124591259Y-140275259D02*
X122191259Y-140275259D01*
X125010259Y-139875259D02*
X124231259Y-139875259D01*
X122551259Y-139715259D02*
X121656259Y-139715259D01*
X125298259Y-139395259D02*
X124231259Y-139395259D01*
X125416259Y-139034259D02*
X124231259Y-139034259D01*
X122551259Y-140075259D02*
X121953259Y-140075259D01*
X122551259Y-140115259D02*
X121995259Y-140115259D01*
X125407259Y-139074259D02*
X124231259Y-139074259D01*
X125441259Y-138914259D02*
X124231259Y-138914259D01*
X125126259Y-139715259D02*
X124231259Y-139715259D01*
X124331259Y-140435259D02*
X122451259Y-140435259D01*
X125425259Y-138994259D02*
X124231259Y-138994259D01*
X124159259Y-140515259D02*
X122623259Y-140515259D01*
X124978259Y-139915259D02*
X124231259Y-139915259D01*
X125373259Y-139194259D02*
X124231259Y-139194259D01*
X124586259Y-136284458D02*
X124586259Y-136684458D01*
X122551259Y-139795259D02*
X121711259Y-139795259D01*
X122551259Y-139595259D02*
X121583259Y-139595259D01*
X125470259Y-138634259D02*
X124231259Y-138634259D01*
X124742259Y-140155259D02*
X122040259Y-140155259D01*
X125261259Y-139475259D02*
X124231259Y-139475259D01*
X122551259Y-139875259D02*
X121772259Y-139875259D01*
X124055259Y-140555259D02*
X122727259Y-140555259D01*
X125071259Y-139795259D02*
X124231259Y-139795259D01*
X125447259Y-138874259D02*
X124231259Y-138874259D01*
X125176259Y-139635259D02*
X124231259Y-139635259D01*
X125453259Y-138834259D02*
X124231259Y-138834259D01*
X122551259Y-138594259D02*
X121311259Y-138594259D01*
X123761259Y-140635259D02*
X123021259Y-140635259D01*
X125465259Y-138714259D02*
X124231259Y-138714259D01*
X125345259Y-139275259D02*
X124231259Y-139275259D01*
X124786259Y-136484458D02*
X124386259Y-136484458D01*
X122551259Y-138794259D02*
X121324259Y-138794259D01*
X122551259Y-139395259D02*
X121484259Y-139395259D01*
X122551259Y-139515259D02*
X121540259Y-139515259D01*
X124907259Y-139995259D02*
X124231259Y-139995259D01*
X125471259Y-138594259D02*
X124231259Y-138594259D01*
X122551259Y-140035259D02*
X121913259Y-140035259D01*
X125199259Y-139595259D02*
X124231259Y-139595259D01*
X124250259Y-140475259D02*
X122532259Y-140475259D01*
X122551259Y-138834259D02*
X121329259Y-138834259D01*
X125396259Y-139114259D02*
X124231259Y-139114259D01*
X125280259Y-139435259D02*
X124231259Y-139435259D01*
X122551259Y-139475259D02*
X121521259Y-139475259D01*
X125433259Y-138954259D02*
X124231259Y-138954259D01*
X125315259Y-139355259D02*
X124231259Y-139355259D01*
X122551259Y-139315259D02*
X121451259Y-139315259D01*
X124829259Y-140075259D02*
X124231259Y-140075259D01*
X124533259Y-140315259D02*
X122249259Y-140315259D01*
X122551259Y-139755259D02*
X121683259Y-139755259D01*
X122551259Y-139435259D02*
X121502259Y-139435259D01*
X124404259Y-140395259D02*
X122378259Y-140395259D01*
X122551259Y-138554259D02*
X121311259Y-138554259D01*
X122551259Y-139955259D02*
X121839259Y-139955259D01*
X122551259Y-139194259D02*
X121409259Y-139194259D01*
X122551259Y-139275259D02*
X121437259Y-139275259D01*
X125458259Y-138794259D02*
X124231259Y-138794259D01*
X125359259Y-139234259D02*
X124231259Y-139234259D01*
X122551259Y-138914259D02*
X121341259Y-138914259D01*
X122551259Y-139074259D02*
X121375259Y-139074259D01*
X122551259Y-138714259D02*
X121317259Y-138714259D01*
X122551259Y-139915259D02*
X121804259Y-139915259D01*
X122551259Y-139034259D02*
X121366259Y-139034259D01*
X122551259Y-138994259D02*
X121357259Y-138994259D01*
X124869259Y-140035259D02*
X124231259Y-140035259D01*
X124787259Y-140115259D02*
X124231259Y-140115259D01*
X125462259Y-138754259D02*
X124231259Y-138754259D01*
X122551259Y-138954259D02*
X121349259Y-138954259D01*
X122551259Y-139835259D02*
X121741259Y-139835259D01*
X125099259Y-139755259D02*
X124231259Y-139755259D01*
X125385259Y-139154259D02*
X124231259Y-139154259D01*
X122551259Y-139234259D02*
X121423259Y-139234259D01*
X125331259Y-139315259D02*
X124231259Y-139315259D01*
X122551259Y-139114259D02*
X121386259Y-139114259D01*
X125471259Y-138554259D02*
X124231259Y-138554259D01*
X122551259Y-139675259D02*
X121631259Y-139675259D01*
X122551259Y-139355259D02*
X121467259Y-139355259D01*
X122551259Y-138754259D02*
X121320259Y-138754259D01*
X125468259Y-138674259D02*
X124231259Y-138674259D01*
X124943259Y-139955259D02*
X124231259Y-139955259D01*
X125151259Y-139675259D02*
X124231259Y-139675259D01*
X125221259Y-139555259D02*
X124231259Y-139555259D01*
X122551259Y-139995259D02*
X121875259Y-139995259D01*
X122551259Y-138674259D02*
X121314259Y-138674259D01*
X124645259Y-140235259D02*
X122137259Y-140235259D01*
X122551259Y-138634259D02*
X121312259Y-138634259D01*
X125511259Y-138554259D02*
G75*
G03*
X125511259Y-138554259I-2120000J0D01*
G01*
%TO.C,R16*%
X152326259Y-122472195D02*
X152326259Y-123926323D01*
X154146259Y-122472195D02*
X154146259Y-123926323D01*
%TO.C,SW1*%
X124983519Y-148022000D02*
X126183519Y-148022000D01*
X132983519Y-143822000D02*
X134183519Y-143822000D01*
X125883519Y-143522000D02*
X124683519Y-143522000D01*
X124683519Y-143522000D02*
X124683519Y-144722000D01*
X134183519Y-148022000D02*
X132983519Y-148022000D01*
X134183519Y-143822000D02*
X134183519Y-148022000D01*
X126183519Y-143822000D02*
X124983519Y-143822000D01*
X124983519Y-143822000D02*
X124983519Y-148022000D01*
%TO.C,D3*%
X180541259Y-137747888D02*
X180541259Y-135094259D01*
X181867630Y-139074259D02*
G75*
G03*
X181867630Y-139074259I-1326371J0D01*
G01*
%TO.C,TP3*%
X153310519Y-147320000D02*
G75*
G03*
X153310519Y-147320000I-700000J0D01*
G01*
%TO.C,C13*%
X162387511Y-131554259D02*
X161865007Y-131554259D01*
X162387511Y-130084259D02*
X161865007Y-130084259D01*
%TO.C,BZ1*%
X163146259Y-114309259D02*
G75*
G03*
X163146259Y-114309259I-6100000J0D01*
G01*
%TO.C,C3*%
X144518259Y-134864259D02*
X143281259Y-134864259D01*
X144201259Y-135865259D02*
X143281259Y-135865259D01*
X141601259Y-136025259D02*
X140791259Y-136025259D01*
X144423259Y-135384259D02*
X143281259Y-135384259D01*
X141601259Y-136065259D02*
X140822259Y-136065259D01*
X143957259Y-136185259D02*
X143281259Y-136185259D01*
X141601259Y-136145259D02*
X140889259Y-136145259D01*
X144521259Y-134744259D02*
X143281259Y-134744259D01*
X141601259Y-136305259D02*
X141045259Y-136305259D01*
X143695259Y-136425259D02*
X141187259Y-136425259D01*
X143105259Y-136745259D02*
X141777259Y-136745259D01*
X144483259Y-135144259D02*
X143281259Y-135144259D01*
X143209259Y-136705259D02*
X141673259Y-136705259D01*
X144475259Y-135184259D02*
X143281259Y-135184259D01*
X141601259Y-135945259D02*
X140733259Y-135945259D01*
X143636259Y-132474458D02*
X143636259Y-132874458D01*
X141601259Y-135705259D02*
X140590259Y-135705259D01*
X144446259Y-135304259D02*
X143281259Y-135304259D01*
X144508259Y-134984259D02*
X143281259Y-134984259D01*
X141601259Y-135224259D02*
X140416259Y-135224259D01*
X141601259Y-135264259D02*
X140425259Y-135264259D01*
X144503259Y-135024259D02*
X143281259Y-135024259D01*
X144271259Y-135745259D02*
X143281259Y-135745259D01*
X141601259Y-135985259D02*
X140761259Y-135985259D01*
X141601259Y-135665259D02*
X140571259Y-135665259D01*
X141601259Y-135384259D02*
X140459259Y-135384259D01*
X141601259Y-135585259D02*
X140534259Y-135585259D01*
X141601259Y-134904259D02*
X140367259Y-134904259D01*
X143583259Y-136505259D02*
X141299259Y-136505259D01*
X143993259Y-136145259D02*
X143281259Y-136145259D01*
X144028259Y-136105259D02*
X143281259Y-136105259D01*
X143641259Y-136465259D02*
X141241259Y-136465259D01*
X143792259Y-136345259D02*
X141090259Y-136345259D01*
X141601259Y-134984259D02*
X140374259Y-134984259D01*
X141601259Y-136265259D02*
X141003259Y-136265259D01*
X144348259Y-135585259D02*
X143281259Y-135585259D01*
X144149259Y-135945259D02*
X143281259Y-135945259D01*
X141601259Y-135064259D02*
X140385259Y-135064259D01*
X143521259Y-136545259D02*
X141361259Y-136545259D01*
X144497259Y-135064259D02*
X143281259Y-135064259D01*
X144520259Y-134824259D02*
X143281259Y-134824259D01*
X141601259Y-135625259D02*
X140552259Y-135625259D01*
X144435259Y-135344259D02*
X143281259Y-135344259D01*
X141601259Y-135785259D02*
X140633259Y-135785259D01*
X141601259Y-135905259D02*
X140706259Y-135905259D01*
X141601259Y-135545259D02*
X140517259Y-135545259D01*
X144466259Y-135224259D02*
X143281259Y-135224259D01*
X141601259Y-134944259D02*
X140370259Y-134944259D01*
X143454259Y-136585259D02*
X141428259Y-136585259D01*
X143745259Y-136385259D02*
X141137259Y-136385259D01*
X141601259Y-135424259D02*
X140473259Y-135424259D01*
X143381259Y-136625259D02*
X141501259Y-136625259D01*
X141601259Y-135825259D02*
X140656259Y-135825259D01*
X144457259Y-135264259D02*
X143281259Y-135264259D01*
X143300259Y-136665259D02*
X141582259Y-136665259D01*
X141601259Y-135024259D02*
X140379259Y-135024259D01*
X144409259Y-135424259D02*
X143281259Y-135424259D01*
X141601259Y-135304259D02*
X140436259Y-135304259D01*
X141601259Y-135865259D02*
X140681259Y-135865259D01*
X144330259Y-135625259D02*
X143281259Y-135625259D01*
X144249259Y-135785259D02*
X143281259Y-135785259D01*
X143879259Y-136265259D02*
X143281259Y-136265259D01*
X141601259Y-136105259D02*
X140854259Y-136105259D01*
X144515259Y-134904259D02*
X143281259Y-134904259D01*
X144060259Y-136065259D02*
X143281259Y-136065259D01*
X142811259Y-136825259D02*
X142071259Y-136825259D01*
X144226259Y-135825259D02*
X143281259Y-135825259D01*
X141601259Y-134864259D02*
X140364259Y-134864259D01*
X144395259Y-135465259D02*
X143281259Y-135465259D01*
X143837259Y-136305259D02*
X143281259Y-136305259D01*
X144491259Y-135104259D02*
X143281259Y-135104259D01*
X141601259Y-135104259D02*
X140391259Y-135104259D01*
X144365259Y-135545259D02*
X143281259Y-135545259D01*
X144311259Y-135665259D02*
X143281259Y-135665259D01*
X144091259Y-136025259D02*
X143281259Y-136025259D01*
X141601259Y-135505259D02*
X140501259Y-135505259D01*
X142978259Y-136785259D02*
X141904259Y-136785259D01*
X144292259Y-135705259D02*
X143281259Y-135705259D01*
X141601259Y-134784259D02*
X140361259Y-134784259D01*
X143919259Y-136225259D02*
X143281259Y-136225259D01*
X141601259Y-134744259D02*
X140361259Y-134744259D01*
X141601259Y-135344259D02*
X140447259Y-135344259D01*
X141601259Y-135745259D02*
X140611259Y-135745259D01*
X143836259Y-132674458D02*
X143436259Y-132674458D01*
X141601259Y-134824259D02*
X140362259Y-134824259D01*
X144176259Y-135905259D02*
X143281259Y-135905259D01*
X141601259Y-135184259D02*
X140407259Y-135184259D01*
X144121259Y-135985259D02*
X143281259Y-135985259D01*
X144512259Y-134944259D02*
X143281259Y-134944259D01*
X141601259Y-136185259D02*
X140925259Y-136185259D01*
X144381259Y-135505259D02*
X143281259Y-135505259D01*
X141601259Y-136225259D02*
X140963259Y-136225259D01*
X141601259Y-135465259D02*
X140487259Y-135465259D01*
X144521259Y-134784259D02*
X143281259Y-134784259D01*
X141601259Y-135144259D02*
X140399259Y-135144259D01*
X144561259Y-134744259D02*
G75*
G03*
X144561259Y-134744259I-2120000J0D01*
G01*
%TO.C,R15*%
X134343519Y-118964064D02*
X134343519Y-117509936D01*
X132523519Y-118964064D02*
X132523519Y-117509936D01*
%TO.C,U3*%
X185881259Y-123319259D02*
X185881259Y-138319259D01*
X140751259Y-113189259D02*
X175751259Y-113189259D01*
X175751259Y-148449259D02*
X140751259Y-148449259D01*
X130621259Y-123319259D02*
X130621259Y-138319259D01*
X130621259Y-138319259D02*
G75*
G03*
X140751259Y-148449259I10129999J-1D01*
G01*
X175751259Y-148449259D02*
G75*
G03*
X185881259Y-138319259I1J10129999D01*
G01*
X182651259Y-115509259D02*
G75*
G03*
X180697340Y-114146343I-6899998J-7809996D01*
G01*
X185881259Y-123319259D02*
G75*
G03*
X175751259Y-113189259I-10129999J1D01*
G01*
X140751259Y-113189259D02*
G75*
G03*
X130621259Y-123319259I-1J-10129999D01*
G01*
%TO.C,C12*%
X158836259Y-123684259D02*
X162876259Y-123684259D01*
X162876259Y-125899259D02*
X162876259Y-126524259D01*
X162876259Y-123684259D02*
X162876259Y-124309259D01*
X158836259Y-126524259D02*
X162876259Y-126524259D01*
X158836259Y-123684259D02*
X158836259Y-124309259D01*
X158836259Y-125899259D02*
X158836259Y-126524259D01*
%TO.C,C5*%
X183796259Y-127009259D02*
G75*
G03*
X183796259Y-127009259I-2620000J0D01*
G01*
%TO.C,C2*%
X133076259Y-135469259D02*
X133076259Y-136597259D01*
X133637259Y-132949259D02*
X133637259Y-133789259D01*
X134277259Y-133689259D02*
X134277259Y-135569259D01*
X134197259Y-133549259D02*
X134197259Y-135709259D01*
X133557259Y-135469259D02*
X133557259Y-136364259D01*
X132876259Y-135469259D02*
X132876259Y-136654259D01*
X133237259Y-132722259D02*
X133237259Y-133789259D01*
X133677259Y-132979259D02*
X133677259Y-133789259D01*
X134437259Y-134092259D02*
X134437259Y-135166259D01*
X133157259Y-135469259D02*
X133157259Y-136569259D01*
X133317259Y-135469259D02*
X133317259Y-136499259D01*
X132796259Y-132587259D02*
X132796259Y-133789259D01*
X133317259Y-132759259D02*
X133317259Y-133789259D01*
X134357259Y-133861259D02*
X134357259Y-135397259D01*
X133557259Y-132894259D02*
X133557259Y-133789259D01*
X132956259Y-135469259D02*
X132956259Y-136634259D01*
X133837259Y-133113259D02*
X133837259Y-133789259D01*
X132636259Y-135469259D02*
X132636259Y-136696259D01*
X133437259Y-132821259D02*
X133437259Y-133789259D01*
X133437259Y-135469259D02*
X133437259Y-136437259D01*
X132516259Y-132552259D02*
X132516259Y-133789259D01*
X134117259Y-133429259D02*
X134117259Y-135829259D01*
X134037259Y-133325259D02*
X134037259Y-135933259D01*
X133197259Y-135469259D02*
X133197259Y-136553259D01*
X132876259Y-132604259D02*
X132876259Y-133789259D01*
X130326458Y-133234259D02*
X130326458Y-133634259D01*
X133517259Y-132869259D02*
X133517259Y-133789259D01*
X132916259Y-132613259D02*
X132916259Y-133789259D01*
X133917259Y-135469259D02*
X133917259Y-136067259D01*
X130126458Y-133434259D02*
X130526458Y-133434259D01*
X132476259Y-135469259D02*
X132476259Y-136708259D01*
X134397259Y-133965259D02*
X134397259Y-135293259D01*
X132556259Y-132555259D02*
X132556259Y-133789259D01*
X132636259Y-132562259D02*
X132636259Y-133789259D01*
X133877259Y-133151259D02*
X133877259Y-133789259D01*
X132756259Y-132579259D02*
X132756259Y-133789259D01*
X133477259Y-135469259D02*
X133477259Y-136414259D01*
X133357259Y-132778259D02*
X133357259Y-133789259D01*
X134477259Y-134259259D02*
X134477259Y-134999259D01*
X132676259Y-132567259D02*
X132676259Y-133789259D01*
X134237259Y-133616259D02*
X134237259Y-135642259D01*
X133277259Y-135469259D02*
X133277259Y-136518259D01*
X133797259Y-133077259D02*
X133797259Y-133789259D01*
X132716259Y-135469259D02*
X132716259Y-136685259D01*
X132396259Y-132549259D02*
X132396259Y-133789259D01*
X132956259Y-132624259D02*
X132956259Y-133789259D01*
X133277259Y-132740259D02*
X133277259Y-133789259D01*
X133157259Y-132689259D02*
X133157259Y-133789259D01*
X132516259Y-135469259D02*
X132516259Y-136706259D01*
X133677259Y-135469259D02*
X133677259Y-136279259D01*
X133036259Y-135469259D02*
X133036259Y-136611259D01*
X133957259Y-135469259D02*
X133957259Y-136025259D01*
X133517259Y-135469259D02*
X133517259Y-136389259D01*
X132596259Y-135469259D02*
X132596259Y-136700259D01*
X134077259Y-133375259D02*
X134077259Y-135883259D01*
X132916259Y-135469259D02*
X132916259Y-136645259D01*
X132716259Y-132573259D02*
X132716259Y-133789259D01*
X132836259Y-132595259D02*
X132836259Y-133789259D01*
X133997259Y-133278259D02*
X133997259Y-135980259D01*
X133797259Y-135469259D02*
X133797259Y-136181259D01*
X132996259Y-132635259D02*
X132996259Y-133789259D01*
X133076259Y-132661259D02*
X133076259Y-133789259D01*
X132436259Y-132549259D02*
X132436259Y-133789259D01*
X133917259Y-133191259D02*
X133917259Y-133789259D01*
X133877259Y-135469259D02*
X133877259Y-136107259D01*
X133357259Y-135469259D02*
X133357259Y-136480259D01*
X132796259Y-135469259D02*
X132796259Y-136671259D01*
X132836259Y-135469259D02*
X132836259Y-136663259D01*
X133757259Y-135469259D02*
X133757259Y-136216259D01*
X133957259Y-133233259D02*
X133957259Y-133789259D01*
X133197259Y-132705259D02*
X133197259Y-133789259D01*
X133837259Y-135469259D02*
X133837259Y-136145259D01*
X133117259Y-135469259D02*
X133117259Y-136583259D01*
X132996259Y-135469259D02*
X132996259Y-136623259D01*
X132596259Y-132558259D02*
X132596259Y-133789259D01*
X133397259Y-132799259D02*
X133397259Y-133789259D01*
X134317259Y-133770259D02*
X134317259Y-135488259D01*
X133597259Y-132921259D02*
X133597259Y-133789259D01*
X133717259Y-133010259D02*
X133717259Y-133789259D01*
X132476259Y-132550259D02*
X132476259Y-133789259D01*
X132556259Y-135469259D02*
X132556259Y-136703259D01*
X133757259Y-133042259D02*
X133757259Y-133789259D01*
X132676259Y-135469259D02*
X132676259Y-136691259D01*
X132436259Y-135469259D02*
X132436259Y-136709259D01*
X133637259Y-135469259D02*
X133637259Y-136309259D01*
X134157259Y-133487259D02*
X134157259Y-135771259D01*
X133036259Y-132647259D02*
X133036259Y-133789259D01*
X133117259Y-132675259D02*
X133117259Y-133789259D01*
X133237259Y-135469259D02*
X133237259Y-136536259D01*
X132396259Y-135469259D02*
X132396259Y-136709259D01*
X132756259Y-135469259D02*
X132756259Y-136679259D01*
X133597259Y-135469259D02*
X133597259Y-136337259D01*
X133477259Y-132844259D02*
X133477259Y-133789259D01*
X133397259Y-135469259D02*
X133397259Y-136459259D01*
X133717259Y-135469259D02*
X133717259Y-136248259D01*
X134516259Y-134629259D02*
G75*
G03*
X134516259Y-134629259I-2120000J0D01*
G01*
%TO.C,D1*%
X136056259Y-137604259D02*
X136056259Y-140544259D01*
X141736259Y-139074259D02*
X140716259Y-139074259D01*
X140716259Y-137604259D02*
X135276259Y-137604259D01*
X136176259Y-137604259D02*
X136176259Y-140544259D01*
X135276259Y-140544259D02*
X140716259Y-140544259D01*
X140716259Y-140544259D02*
X140716259Y-137604259D01*
X136296259Y-137604259D02*
X136296259Y-140544259D01*
X134256259Y-139074259D02*
X135276259Y-139074259D01*
X135276259Y-137604259D02*
X135276259Y-140544259D01*
%TO.C,R10*%
X121394195Y-117759259D02*
X122848323Y-117759259D01*
X121394195Y-115939259D02*
X122848323Y-115939259D01*
D13*
%TO.C,IC1*%
X126336259Y-137684259D02*
X126336259Y-135384259D01*
X129336259Y-135384259D02*
X129336259Y-137684259D01*
X126336259Y-135384259D02*
X129336259Y-135384259D01*
X126286259Y-139459259D02*
X126286259Y-138034259D01*
X129336259Y-137684259D02*
X126336259Y-137684259D01*
D10*
%TO.C,JP4*%
X145221259Y-136134259D02*
X145721259Y-135634259D01*
X149321259Y-137434259D02*
X145721259Y-137434259D01*
X145721259Y-135634259D02*
X149321259Y-135634259D01*
X149321259Y-135634259D02*
X149821259Y-136134259D01*
X149821259Y-136934259D02*
X149321259Y-137434259D01*
X145221259Y-136934259D02*
X145221259Y-136134259D01*
X145721259Y-137434259D02*
X145221259Y-136934259D01*
X149821259Y-136134259D02*
X149821259Y-136934259D01*
D12*
%TO.C,U2*%
X167481259Y-139129259D02*
X171981259Y-139129259D01*
X168731259Y-121229259D02*
X167481259Y-121229259D01*
X171981259Y-139129259D02*
X171981259Y-121229259D01*
X171981259Y-121229259D02*
X170731259Y-121229259D01*
X167481259Y-121229259D02*
X167481259Y-139129259D01*
X168731259Y-121229259D02*
G75*
G03*
X170731259Y-121229259I1000000J0D01*
G01*
%TO.C,J3*%
X186951259Y-118059259D02*
X184291259Y-118059259D01*
X184291259Y-140979259D02*
X184291259Y-118059259D01*
X186951259Y-140979259D02*
X184291259Y-140979259D01*
X186951259Y-143579259D02*
X185621259Y-143579259D01*
X186951259Y-142249259D02*
X186951259Y-143579259D01*
X186951259Y-140979259D02*
X186951259Y-118059259D01*
%TO.C,Q1*%
X144968519Y-116277000D02*
X148568519Y-116277000D01*
X146768519Y-111826999D02*
G75*
G03*
X144930041Y-116265478I0J-2600001D01*
G01*
X148606997Y-116265478D02*
G75*
G03*
X146768519Y-111827000I-1838478J1838478D01*
G01*
%TO.C,D4*%
X178057630Y-122564259D02*
X180711259Y-122564259D01*
X178057630Y-122564259D02*
G75*
G03*
X178057630Y-122564259I-1326371J0D01*
G01*
%TO.C,R3*%
X165393323Y-115219259D02*
X163939195Y-115219259D01*
X165393323Y-113399259D02*
X163939195Y-113399259D01*
%TO.C,C7*%
X121860007Y-120124259D02*
X122382511Y-120124259D01*
X121860007Y-118654259D02*
X122382511Y-118654259D01*
D10*
%TO.C,JP3*%
X145721259Y-139974259D02*
X145221259Y-139474259D01*
X149821259Y-139474259D02*
X149321259Y-139974259D01*
X145221259Y-139474259D02*
X145221259Y-138674259D01*
X149321259Y-139974259D02*
X145721259Y-139974259D01*
X149821259Y-138674259D02*
X149821259Y-139474259D01*
X145221259Y-138674259D02*
X145721259Y-138174259D01*
X145721259Y-138174259D02*
X149321259Y-138174259D01*
X149321259Y-138174259D02*
X149821259Y-138674259D01*
D12*
%TO.C,C11*%
X153610007Y-128379259D02*
X154132511Y-128379259D01*
X153610007Y-126909259D02*
X154132511Y-126909259D01*
%TO.C,R9*%
X169917455Y-113390000D02*
X171371583Y-113390000D01*
X169917455Y-115210000D02*
X171371583Y-115210000D01*
%TO.C,TP5*%
X158390519Y-147320000D02*
G75*
G03*
X158390519Y-147320000I-700000J0D01*
G01*
%TD*%
M02*
