%TF.GenerationSoftware,KiCad,Pcbnew,(6.0.2)*%
%TF.CreationDate,2022-06-08T22:41:36-07:00*%
%TF.ProjectId,TrailAlarm,54726169-6c41-46c6-9172-6d2e6b696361,1*%
%TF.SameCoordinates,Original*%
%TF.FileFunction,Soldermask,Top*%
%TF.FilePolarity,Negative*%
%FSLAX46Y46*%
G04 Gerber Fmt 4.6, Leading zero omitted, Abs format (unit mm)*
G04 Created by KiCad (PCBNEW (6.0.2)) date 2022-06-08 22:41:36*
%MOMM*%
%LPD*%
G01*
G04 APERTURE LIST*
G04 Aperture macros list*
%AMRoundRect*
0 Rectangle with rounded corners*
0 $1 Rounding radius*
0 $2 $3 $4 $5 $6 $7 $8 $9 X,Y pos of 4 corners*
0 Add a 4 corners polygon primitive as box body*
4,1,4,$2,$3,$4,$5,$6,$7,$8,$9,$2,$3,0*
0 Add four circle primitives for the rounded corners*
1,1,$1+$1,$2,$3*
1,1,$1+$1,$4,$5*
1,1,$1+$1,$6,$7*
1,1,$1+$1,$8,$9*
0 Add four rect primitives between the rounded corners*
20,1,$1+$1,$2,$3,$4,$5,0*
20,1,$1+$1,$4,$5,$6,$7,0*
20,1,$1+$1,$6,$7,$8,$9,0*
20,1,$1+$1,$8,$9,$2,$3,0*%
G04 Aperture macros list end*
%ADD10RoundRect,0.250000X-0.400000X-0.625000X0.400000X-0.625000X0.400000X0.625000X-0.400000X0.625000X0*%
%ADD11RoundRect,0.250000X0.625000X-0.400000X0.625000X0.400000X-0.625000X0.400000X-0.625000X-0.400000X0*%
%ADD12C,1.600000*%
%ADD13RoundRect,0.250000X-0.625000X0.400000X-0.625000X-0.400000X0.625000X-0.400000X0.625000X0.400000X0*%
%ADD14C,1.400000*%
%ADD15C,1.000000*%
%ADD16R,1.600000X1.600000*%
%ADD17O,1.600000X1.600000*%
%ADD18R,1.700000X1.700000*%
%ADD19O,1.700000X1.700000*%
%ADD20R,1.200000X1.200000*%
%ADD21C,1.200000*%
%ADD22R,1.600000X2.400000*%
%ADD23O,1.600000X2.400000*%
%ADD24C,1.440000*%
%ADD25R,2.400000X1.600000*%
%ADD26O,2.400000X1.600000*%
%ADD27R,1.400000X1.400000*%
%ADD28RoundRect,0.250000X0.337500X0.475000X-0.337500X0.475000X-0.337500X-0.475000X0.337500X-0.475000X0*%
%ADD29R,2.000000X2.000000*%
%ADD30C,2.000000*%
%ADD31C,1.700000*%
%ADD32R,2.200000X2.200000*%
%ADD33O,2.200000X2.200000*%
%ADD34R,0.450000X1.425000*%
%ADD35R,1.050000X1.500000*%
%ADD36O,1.050000X1.500000*%
%ADD37RoundRect,0.250000X0.400000X0.625000X-0.400000X0.625000X-0.400000X-0.625000X0.400000X-0.625000X0*%
%ADD38RoundRect,0.250000X-0.337500X-0.475000X0.337500X-0.475000X0.337500X0.475000X-0.337500X0.475000X0*%
G04 APERTURE END LIST*
D10*
%TO.C,R4*%
X155496259Y-114309259D03*
X158596259Y-114309259D03*
%TD*%
%TO.C,R18*%
X159306259Y-121929259D03*
X162406259Y-121929259D03*
%TD*%
D11*
%TO.C,R19*%
X153236259Y-138084259D03*
X153236259Y-134984259D03*
%TD*%
D12*
%TO.C,C14*%
X159626259Y-137804259D03*
X162126259Y-137804259D03*
%TD*%
D13*
%TO.C,R8*%
X176731259Y-125459259D03*
X176731259Y-128559259D03*
%TD*%
D14*
%TO.C,JP1*%
X120871259Y-134629259D03*
X123411259Y-134629259D03*
%TD*%
D10*
%TO.C,R1*%
X176451259Y-131454259D03*
X179551259Y-131454259D03*
%TD*%
D15*
%TO.C,TP2*%
X162770519Y-147320000D03*
%TD*%
D11*
%TO.C,R17*%
X156411259Y-124749259D03*
X156411259Y-121649259D03*
%TD*%
D10*
%TO.C,R2*%
X136963519Y-114427000D03*
X140063519Y-114427000D03*
%TD*%
D16*
%TO.C,D2*%
X177366259Y-133994259D03*
D17*
X177366259Y-139074259D03*
%TD*%
D18*
%TO.C,J1*%
X118946259Y-130184259D03*
D19*
X118946259Y-127644259D03*
X118946259Y-125104259D03*
%TD*%
D13*
%TO.C,R20*%
X156411259Y-134984259D03*
X156411259Y-138084259D03*
%TD*%
D10*
%TO.C,R21*%
X159326259Y-134629259D03*
X162426259Y-134629259D03*
%TD*%
D18*
%TO.C,J4*%
X122638519Y-144272000D03*
D19*
X120098519Y-144272000D03*
%TD*%
D18*
%TO.C,J2*%
X165818519Y-147320000D03*
%TD*%
D15*
%TO.C,TP4*%
X155150519Y-147320000D03*
%TD*%
D20*
%TO.C,C4*%
X137361259Y-133994259D03*
D21*
X137361259Y-135494259D03*
%TD*%
D22*
%TO.C,U1*%
X149948519Y-122047000D03*
D23*
X147408519Y-122047000D03*
X144868519Y-122047000D03*
X142328519Y-122047000D03*
X139788519Y-122047000D03*
X137248519Y-122047000D03*
X134708519Y-122047000D03*
X134708519Y-129667000D03*
X137248519Y-129667000D03*
X139788519Y-129667000D03*
X142328519Y-129667000D03*
X144868519Y-129667000D03*
X147408519Y-129667000D03*
X149948519Y-129667000D03*
%TD*%
D24*
%TO.C,RV1*%
X174723519Y-114300000D03*
X177263519Y-114300000D03*
X179803519Y-114300000D03*
%TD*%
D14*
%TO.C,JP2*%
X146251259Y-133994259D03*
X148791259Y-133994259D03*
%TD*%
D25*
%TO.C,U5*%
X123608759Y-122574259D03*
D26*
X123608759Y-125114259D03*
X123608759Y-127654259D03*
X123608759Y-130194259D03*
X131228759Y-130194259D03*
X131228759Y-127654259D03*
X131228759Y-125114259D03*
X131228759Y-122574259D03*
%TD*%
D15*
%TO.C,TP1*%
X160230519Y-147320000D03*
%TD*%
D20*
%TO.C,C1*%
X123391259Y-137804259D03*
D21*
X123391259Y-139304259D03*
%TD*%
D13*
%TO.C,R16*%
X153236259Y-121649259D03*
X153236259Y-124749259D03*
%TD*%
D27*
%TO.C,SW1*%
X127083519Y-144272000D03*
D14*
X129583519Y-144272000D03*
X132083519Y-144272000D03*
X127083519Y-147572000D03*
X129583519Y-147572000D03*
X132083519Y-147572000D03*
%TD*%
D16*
%TO.C,D3*%
X180541259Y-139074259D03*
D17*
X180541259Y-133994259D03*
%TD*%
D15*
%TO.C,TP3*%
X152610519Y-147320000D03*
%TD*%
D28*
%TO.C,C13*%
X163163759Y-130819259D03*
X161088759Y-130819259D03*
%TD*%
D29*
%TO.C,BZ1*%
X160846259Y-114309259D03*
D30*
X153246259Y-114309259D03*
%TD*%
D20*
%TO.C,C3*%
X142441259Y-133994259D03*
D21*
X142441259Y-135494259D03*
%TD*%
D11*
%TO.C,R15*%
X133433519Y-119787000D03*
X133433519Y-116687000D03*
%TD*%
D18*
%TO.C,U3*%
X179841259Y-116849259D03*
D19*
X179841259Y-119389259D03*
X177301259Y-116849259D03*
X177301259Y-119389259D03*
X174761259Y-116849259D03*
X174761259Y-119389259D03*
X172221259Y-116849259D03*
X172221259Y-119389259D03*
X169681259Y-116849259D03*
X169681259Y-119389259D03*
X167141259Y-116849259D03*
X167141259Y-119389259D03*
X164601259Y-116849259D03*
X164601259Y-119389259D03*
X162061259Y-116849259D03*
X162061259Y-119389259D03*
X159521259Y-116849259D03*
X159521259Y-119389259D03*
X156981259Y-116849259D03*
X156981259Y-119389259D03*
X154441259Y-116849259D03*
X154441259Y-119389259D03*
X151901259Y-116849259D03*
X151901259Y-119389259D03*
X149361259Y-116849259D03*
X149361259Y-119389259D03*
X146821259Y-116849259D03*
X146821259Y-119389259D03*
X144281259Y-116849259D03*
X144281259Y-119389259D03*
X141741259Y-116849259D03*
X141741259Y-119389259D03*
X139201259Y-116849259D03*
X139201259Y-119389259D03*
X136661259Y-116849259D03*
X136661259Y-119389259D03*
D31*
X179841259Y-142249259D03*
D19*
X179841259Y-144789259D03*
X177301259Y-142249259D03*
X177301259Y-144789259D03*
X174761259Y-142249259D03*
X174761259Y-144789259D03*
X172221259Y-142249259D03*
X172221259Y-144789259D03*
X169681259Y-142249259D03*
X169681259Y-144789259D03*
X167141259Y-142249259D03*
X167141259Y-144789259D03*
X164601259Y-142249259D03*
X164601259Y-144789259D03*
X162061259Y-142249259D03*
X162061259Y-144789259D03*
X159521259Y-142249259D03*
X159521259Y-144789259D03*
X156981259Y-142249259D03*
X156981259Y-144789259D03*
X154441259Y-142249259D03*
X154441259Y-144789259D03*
X151901259Y-142249259D03*
X151901259Y-144789259D03*
X149361259Y-142249259D03*
X149361259Y-144789259D03*
X146821259Y-142249259D03*
X146821259Y-144789259D03*
X144281259Y-142249259D03*
X144281259Y-144789259D03*
X141741259Y-142249259D03*
X141741259Y-144789259D03*
X139201259Y-142249259D03*
X139201259Y-144789259D03*
X136661259Y-142249259D03*
X136661259Y-144789259D03*
%TD*%
D12*
%TO.C,C12*%
X159606259Y-125104259D03*
X162106259Y-125104259D03*
%TD*%
D21*
%TO.C,C5*%
X181176259Y-128009259D03*
X181176259Y-126009259D03*
%TD*%
D20*
%TO.C,C2*%
X131646259Y-134629259D03*
D21*
X133146259Y-134629259D03*
%TD*%
D32*
%TO.C,D1*%
X132916259Y-139074259D03*
D33*
X143076259Y-139074259D03*
%TD*%
D10*
%TO.C,R10*%
X120571259Y-116849259D03*
X123671259Y-116849259D03*
%TD*%
D34*
%TO.C,IC1*%
X126861259Y-138746259D03*
X127511259Y-138746259D03*
X128161259Y-138746259D03*
X128811259Y-138746259D03*
X128811259Y-134322259D03*
X128161259Y-134322259D03*
X127511259Y-134322259D03*
X126861259Y-134322259D03*
%TD*%
D14*
%TO.C,JP4*%
X146251259Y-136534259D03*
X148791259Y-136534259D03*
%TD*%
D25*
%TO.C,U2*%
X165921259Y-122559259D03*
D26*
X165921259Y-125099259D03*
X165921259Y-127639259D03*
X165921259Y-130179259D03*
X165921259Y-132719259D03*
X165921259Y-135259259D03*
X165921259Y-137799259D03*
X173541259Y-137799259D03*
X173541259Y-135259259D03*
X173541259Y-132719259D03*
X173541259Y-130179259D03*
X173541259Y-127639259D03*
X173541259Y-125099259D03*
X173541259Y-122559259D03*
%TD*%
D18*
%TO.C,J3*%
X185621259Y-142249259D03*
D19*
X185621259Y-139709259D03*
X185621259Y-137169259D03*
X185621259Y-134629259D03*
X185621259Y-132089259D03*
X185621259Y-129549259D03*
X185621259Y-127009259D03*
X185621259Y-124469259D03*
X185621259Y-121929259D03*
X185621259Y-119389259D03*
%TD*%
D35*
%TO.C,Q1*%
X145498519Y-114427000D03*
D36*
X146768519Y-114427000D03*
X148038519Y-114427000D03*
%TD*%
D16*
%TO.C,D4*%
X176731259Y-122564259D03*
D17*
X181811259Y-122564259D03*
%TD*%
D37*
%TO.C,R3*%
X166216259Y-114309259D03*
X163116259Y-114309259D03*
%TD*%
D38*
%TO.C,C7*%
X121083759Y-119389259D03*
X123158759Y-119389259D03*
%TD*%
D14*
%TO.C,JP3*%
X146251259Y-139074259D03*
X148791259Y-139074259D03*
%TD*%
D38*
%TO.C,C11*%
X152833759Y-127644259D03*
X154908759Y-127644259D03*
%TD*%
D10*
%TO.C,R9*%
X169094519Y-114300000D03*
X172194519Y-114300000D03*
%TD*%
D15*
%TO.C,TP5*%
X157690519Y-147320000D03*
%TD*%
M02*
