M48
; DRILL file {KiCad (6.0.2)} date Wed Jun  8 22:41:25 2022
; FORMAT={-:-/ absolute / inch / decimal}
; #@! TF.CreationDate,2022-06-08T22:41:25-07:00
; #@! TF.GenerationSoftware,Kicad,Pcbnew,(6.0.2)
; #@! TF.FileFunction,Plated,1,2,PTH
FMAT,2
INCH
; #@! TA.AperFunction,Plated,PTH,ViaDrill
T1C0.0157
; #@! TA.AperFunction,Plated,PTH,ComponentDrill
T2C0.0236
; #@! TA.AperFunction,Plated,PTH,ComponentDrill
T3C0.0295
; #@! TA.AperFunction,Plated,PTH,ComponentDrill
T4C0.0315
; #@! TA.AperFunction,Plated,PTH,ComponentDrill
T5C0.0354
; #@! TA.AperFunction,Plated,PTH,ComponentDrill
T6C0.0394
; #@! TA.AperFunction,Plated,PTH,ComponentDrill
T7C0.0433
%
G90
G05
T1
X4.9329Y-5.3004
X5.2533Y-4.93
X5.7983Y-4.9982
X6.1583Y-5.51
X6.4083Y-5.08
X6.5283Y-5.65
T2
X4.8579Y-5.4254
X4.8579Y-5.4844
X5.1829Y-5.3004
X5.242Y-5.3004
X5.4079Y-5.2754
X5.4079Y-5.3344
X5.6079Y-5.2754
X5.6079Y-5.3344
X7.1329Y-4.961
X7.1329Y-5.0397
T3
X5.7283Y-4.505
X5.7783Y-4.505
X5.8283Y-4.505
T4
X4.7587Y-5.3004
X4.8587Y-5.3004
X4.8665Y-4.8258
X4.8665Y-4.9258
X4.8665Y-5.0258
X4.8665Y-5.1258
X5.1665Y-4.8258
X5.1665Y-4.9258
X5.1665Y-5.0258
X5.1665Y-5.1258
X5.3035Y-4.805
X5.3035Y-5.105
X5.4035Y-4.805
X5.4035Y-5.105
X5.5035Y-4.805
X5.5035Y-5.105
X5.6035Y-4.805
X5.6035Y-5.105
X5.7035Y-4.805
X5.7035Y-5.105
X5.7579Y-5.2754
X5.7579Y-5.3754
X5.7579Y-5.4754
X5.8035Y-4.805
X5.8035Y-5.105
X5.8579Y-5.2754
X5.8579Y-5.3754
X5.8579Y-5.4754
X5.9035Y-4.805
X5.9035Y-5.105
X6.2837Y-4.9254
X6.2845Y-5.4254
X6.3821Y-4.9254
X6.3829Y-5.4254
X6.5323Y-4.8252
X6.5323Y-4.9252
X6.5323Y-5.0252
X6.5323Y-5.1252
X6.5323Y-5.2252
X6.5323Y-5.3252
X6.5323Y-5.4252
X6.8323Y-4.8252
X6.8323Y-4.9252
X6.8323Y-5.0252
X6.8323Y-5.1252
X6.8323Y-5.2252
X6.8323Y-5.3252
X6.8323Y-5.4252
X6.8789Y-4.5
X6.9579Y-4.8254
X6.9789Y-4.5
X6.9829Y-5.2754
X6.9829Y-5.4754
X7.0789Y-4.5
X7.1079Y-5.2754
X7.1079Y-5.4754
X7.1579Y-4.8254
T5
X5.0033Y-5.68
X5.0033Y-5.8099
X5.1017Y-5.68
X5.1017Y-5.8099
X5.2001Y-5.68
X5.2001Y-5.8099
T6
X4.6829Y-4.9254
X4.6829Y-5.0254
X4.6829Y-5.1254
X4.7283Y-5.68
X4.8283Y-5.68
X5.3804Y-4.6004
X5.3804Y-4.7004
X5.3804Y-5.6004
X5.3804Y-5.7004
X5.4804Y-4.6004
X5.4804Y-4.7004
X5.4804Y-5.6004
X5.4804Y-5.7004
X5.5804Y-4.6004
X5.5804Y-4.7004
X5.5804Y-5.6004
X5.5804Y-5.7004
X5.6804Y-4.6004
X5.6804Y-4.7004
X5.6804Y-5.6004
X5.6804Y-5.7004
X5.7804Y-4.6004
X5.7804Y-4.7004
X5.7804Y-5.6004
X5.7804Y-5.7004
X5.8804Y-4.6004
X5.8804Y-4.7004
X5.8804Y-5.6004
X5.8804Y-5.7004
X5.9804Y-4.6004
X5.9804Y-4.7004
X5.9804Y-5.6004
X5.9804Y-5.7004
X6.0333Y-4.5004
X6.0804Y-4.6004
X6.0804Y-4.7004
X6.0804Y-5.6004
X6.0804Y-5.7004
X6.1804Y-4.6004
X6.1804Y-4.7004
X6.1804Y-5.6004
X6.1804Y-5.7004
X6.2804Y-4.6004
X6.2804Y-4.7004
X6.2804Y-5.6004
X6.2804Y-5.7004
X6.3325Y-4.5004
X6.3804Y-4.6004
X6.3804Y-4.7004
X6.3804Y-5.6004
X6.3804Y-5.7004
X6.4804Y-4.6004
X6.4804Y-4.7004
X6.4804Y-5.6004
X6.4804Y-5.7004
X6.5283Y-5.8
X6.5804Y-4.6004
X6.5804Y-4.7004
X6.5804Y-5.6004
X6.5804Y-5.7004
X6.6804Y-4.6004
X6.6804Y-4.7004
X6.6804Y-5.6004
X6.6804Y-5.7004
X6.7804Y-4.6004
X6.7804Y-4.7004
X6.7804Y-5.6004
X6.7804Y-5.7004
X6.8804Y-4.6004
X6.8804Y-4.7004
X6.8804Y-5.6004
X6.8804Y-5.7004
X6.9804Y-4.6004
X6.9804Y-4.7004
X6.9804Y-5.6004
X6.9804Y-5.7004
X7.0804Y-4.6004
X7.0804Y-4.7004
X7.0804Y-5.6004
X7.0804Y-5.7004
X7.3079Y-4.7004
X7.3079Y-4.8004
X7.3079Y-4.9004
X7.3079Y-5.0004
X7.3079Y-5.1004
X7.3079Y-5.2004
X7.3079Y-5.3004
X7.3079Y-5.4004
X7.3079Y-5.5004
X7.3079Y-5.6004
T7
X5.2329Y-5.4754
X5.6329Y-5.4754
T0
M30
