%TF.GenerationSoftware,KiCad,Pcbnew,(6.0.2)*%
%TF.CreationDate,2022-06-08T22:41:36-07:00*%
%TF.ProjectId,TrailAlarm,54726169-6c41-46c6-9172-6d2e6b696361,1*%
%TF.SameCoordinates,Original*%
%TF.FileFunction,Paste,Top*%
%TF.FilePolarity,Positive*%
%FSLAX46Y46*%
G04 Gerber Fmt 4.6, Leading zero omitted, Abs format (unit mm)*
G04 Created by KiCad (PCBNEW (6.0.2)) date 2022-06-08 22:41:36*
%MOMM*%
%LPD*%
G01*
G04 APERTURE LIST*
G04 Aperture macros list*
%AMRoundRect*
0 Rectangle with rounded corners*
0 $1 Rounding radius*
0 $2 $3 $4 $5 $6 $7 $8 $9 X,Y pos of 4 corners*
0 Add a 4 corners polygon primitive as box body*
4,1,4,$2,$3,$4,$5,$6,$7,$8,$9,$2,$3,0*
0 Add four circle primitives for the rounded corners*
1,1,$1+$1,$2,$3*
1,1,$1+$1,$4,$5*
1,1,$1+$1,$6,$7*
1,1,$1+$1,$8,$9*
0 Add four rect primitives between the rounded corners*
20,1,$1+$1,$2,$3,$4,$5,0*
20,1,$1+$1,$4,$5,$6,$7,0*
20,1,$1+$1,$6,$7,$8,$9,0*
20,1,$1+$1,$8,$9,$2,$3,0*%
G04 Aperture macros list end*
%ADD10RoundRect,0.250000X-0.400000X-0.625000X0.400000X-0.625000X0.400000X0.625000X-0.400000X0.625000X0*%
%ADD11RoundRect,0.250000X0.625000X-0.400000X0.625000X0.400000X-0.625000X0.400000X-0.625000X-0.400000X0*%
%ADD12RoundRect,0.250000X-0.625000X0.400000X-0.625000X-0.400000X0.625000X-0.400000X0.625000X0.400000X0*%
%ADD13RoundRect,0.250000X0.337500X0.475000X-0.337500X0.475000X-0.337500X-0.475000X0.337500X-0.475000X0*%
%ADD14R,0.450000X1.425000*%
%ADD15RoundRect,0.250000X0.400000X0.625000X-0.400000X0.625000X-0.400000X-0.625000X0.400000X-0.625000X0*%
%ADD16RoundRect,0.250000X-0.337500X-0.475000X0.337500X-0.475000X0.337500X0.475000X-0.337500X0.475000X0*%
G04 APERTURE END LIST*
D10*
%TO.C,R4*%
X155496259Y-114309259D03*
X158596259Y-114309259D03*
%TD*%
%TO.C,R18*%
X159306259Y-121929259D03*
X162406259Y-121929259D03*
%TD*%
D11*
%TO.C,R19*%
X153236259Y-138084259D03*
X153236259Y-134984259D03*
%TD*%
D12*
%TO.C,R8*%
X176731259Y-125459259D03*
X176731259Y-128559259D03*
%TD*%
D10*
%TO.C,R1*%
X176451259Y-131454259D03*
X179551259Y-131454259D03*
%TD*%
D11*
%TO.C,R17*%
X156411259Y-124749259D03*
X156411259Y-121649259D03*
%TD*%
D10*
%TO.C,R2*%
X136963519Y-114427000D03*
X140063519Y-114427000D03*
%TD*%
D12*
%TO.C,R20*%
X156411259Y-134984259D03*
X156411259Y-138084259D03*
%TD*%
D10*
%TO.C,R21*%
X159326259Y-134629259D03*
X162426259Y-134629259D03*
%TD*%
D12*
%TO.C,R16*%
X153236259Y-121649259D03*
X153236259Y-124749259D03*
%TD*%
D13*
%TO.C,C13*%
X163163759Y-130819259D03*
X161088759Y-130819259D03*
%TD*%
D11*
%TO.C,R15*%
X133433519Y-119787000D03*
X133433519Y-116687000D03*
%TD*%
D10*
%TO.C,R10*%
X120571259Y-116849259D03*
X123671259Y-116849259D03*
%TD*%
D14*
%TO.C,IC1*%
X126861259Y-138746259D03*
X127511259Y-138746259D03*
X128161259Y-138746259D03*
X128811259Y-138746259D03*
X128811259Y-134322259D03*
X128161259Y-134322259D03*
X127511259Y-134322259D03*
X126861259Y-134322259D03*
%TD*%
D15*
%TO.C,R3*%
X166216259Y-114309259D03*
X163116259Y-114309259D03*
%TD*%
D16*
%TO.C,C7*%
X121083759Y-119389259D03*
X123158759Y-119389259D03*
%TD*%
%TO.C,C11*%
X152833759Y-127644259D03*
X154908759Y-127644259D03*
%TD*%
D10*
%TO.C,R9*%
X169094519Y-114300000D03*
X172194519Y-114300000D03*
%TD*%
M02*
