M48
; DRILL file {KiCad (6.0.5)} date Fri Jun 10 02:23:47 2022
; FORMAT={-:-/ absolute / metric / decimal}
; #@! TF.CreationDate,2022-06-10T02:23:47-07:00
; #@! TF.GenerationSoftware,Kicad,Pcbnew,(6.0.5)
; #@! TF.FileFunction,MixedPlating,1,2
FMAT,2
METRIC
; #@! TA.AperFunction,Plated,PTH,ViaDrill
T1C0.400
; #@! TA.AperFunction,Plated,PTH,ComponentDrill
T2C0.600
; #@! TA.AperFunction,Plated,PTH,ComponentDrill
T3C0.750
; #@! TA.AperFunction,Plated,PTH,ComponentDrill
T4C0.800
; #@! TA.AperFunction,Plated,PTH,ComponentDrill
T5C0.900
; #@! TA.AperFunction,Plated,PTH,ComponentDrill
T6C1.000
; #@! TA.AperFunction,Plated,PTH,ComponentDrill
T7C1.100
; #@! TA.AperFunction,NonPlated,NPTH,ComponentDrill
T8C2.200
%
G90
G05
T1
X125.296Y-134.629
X133.434Y-125.222
X147.277Y-126.955
X156.421Y-139.954
X162.771Y-129.032
T2
X123.391Y-137.804
X123.391Y-139.304
X131.646Y-134.629
X133.146Y-134.629
X137.361Y-133.994
X137.361Y-135.494
X142.441Y-133.994
X142.441Y-135.494
X181.176Y-126.009
X181.176Y-128.009
T3
X145.499Y-114.427
X146.769Y-114.427
X148.039Y-114.427
T4
X120.871Y-134.629
X123.411Y-134.629
X123.609Y-122.574
X123.609Y-125.114
X123.609Y-127.654
X123.609Y-130.194
X131.229Y-122.574
X131.229Y-125.114
X131.229Y-127.654
X131.229Y-130.194
X134.709Y-122.047
X134.709Y-129.667
X137.249Y-122.047
X137.249Y-129.667
X139.789Y-122.047
X139.789Y-129.667
X142.329Y-122.047
X142.329Y-129.667
X144.869Y-122.047
X144.869Y-129.667
X146.251Y-133.994
X146.251Y-136.534
X146.251Y-139.074
X147.409Y-122.047
X147.409Y-129.667
X148.791Y-133.994
X148.791Y-136.534
X148.791Y-139.074
X149.949Y-122.047
X149.949Y-129.667
X159.606Y-125.104
X159.626Y-137.804
X162.106Y-125.104
X162.126Y-137.804
X165.921Y-122.559
X165.921Y-125.099
X165.921Y-127.639
X165.921Y-130.179
X165.921Y-132.719
X165.921Y-135.259
X165.921Y-137.799
X173.541Y-122.559
X173.541Y-125.099
X173.541Y-127.639
X173.541Y-130.179
X173.541Y-132.719
X173.541Y-135.259
X173.541Y-137.799
X174.724Y-114.3
X176.731Y-122.564
X177.264Y-114.3
X177.366Y-133.994
X177.366Y-139.074
X179.804Y-114.3
X180.541Y-133.994
X180.541Y-139.074
X181.811Y-122.564
T5
X127.635Y-146.685
X127.635Y-149.985
X130.135Y-146.685
X130.135Y-149.985
X132.635Y-146.685
X132.635Y-149.985
T6
X118.745Y-139.065
X118.745Y-141.605
X119.38Y-125.095
X119.38Y-127.635
X119.38Y-130.175
X136.652Y-116.84
X136.652Y-119.38
X136.652Y-142.24
X136.652Y-144.78
X139.192Y-116.84
X139.192Y-119.38
X139.192Y-142.24
X139.192Y-144.78
X141.732Y-116.84
X141.732Y-119.38
X141.732Y-142.24
X141.732Y-144.78
X144.272Y-116.84
X144.272Y-119.38
X144.272Y-142.24
X144.272Y-144.78
X146.812Y-116.84
X146.812Y-119.38
X146.812Y-142.24
X146.812Y-144.78
X149.352Y-116.84
X149.352Y-119.38
X149.352Y-142.24
X149.352Y-144.78
X151.892Y-116.84
X151.892Y-119.38
X151.892Y-142.24
X151.892Y-144.78
X153.246Y-114.309
X154.432Y-116.84
X154.432Y-119.38
X154.432Y-142.24
X154.432Y-144.78
X156.972Y-116.84
X156.972Y-119.38
X156.972Y-142.24
X156.972Y-144.78
X159.512Y-116.84
X159.512Y-119.38
X159.512Y-142.24
X159.512Y-144.78
X160.846Y-114.309
X162.052Y-116.84
X162.052Y-119.38
X162.052Y-142.24
X162.052Y-144.78
X164.592Y-116.84
X164.592Y-119.38
X164.592Y-142.24
X164.592Y-144.78
X167.132Y-116.84
X167.132Y-119.38
X167.132Y-142.24
X167.132Y-144.78
X167.132Y-147.32
X169.672Y-116.84
X169.672Y-119.38
X169.672Y-142.24
X169.672Y-144.78
X172.212Y-116.84
X172.212Y-119.38
X172.212Y-142.24
X172.212Y-144.78
X174.752Y-116.84
X174.752Y-119.38
X174.752Y-142.24
X174.752Y-144.78
X177.292Y-116.84
X177.292Y-119.38
X177.292Y-142.24
X177.292Y-144.78
X179.832Y-116.84
X179.832Y-119.38
X179.832Y-142.24
X179.832Y-144.78
X185.674Y-119.38
X185.674Y-121.92
X185.674Y-124.46
X185.674Y-127.0
X185.674Y-129.54
X185.674Y-132.08
X185.674Y-134.62
X185.674Y-137.16
X185.674Y-139.7
X185.674Y-142.24
T7
X132.916Y-139.074
X143.076Y-139.074
T8
X120.015Y-114.173
X120.015Y-146.05
X186.055Y-114.3
X186.055Y-146.05
T0
M30
