%TF.GenerationSoftware,KiCad,Pcbnew,(6.0.2)*%
%TF.CreationDate,2022-06-08T22:41:36-07:00*%
%TF.ProjectId,TrailAlarm,54726169-6c41-46c6-9172-6d2e6b696361,1*%
%TF.SameCoordinates,Original*%
%TF.FileFunction,Legend,Bot*%
%TF.FilePolarity,Positive*%
%FSLAX46Y46*%
G04 Gerber Fmt 4.6, Leading zero omitted, Abs format (unit mm)*
G04 Created by KiCad (PCBNEW (6.0.2)) date 2022-06-08 22:41:36*
%MOMM*%
%LPD*%
G01*
G04 APERTURE LIST*
%ADD10C,0.150000*%
%ADD11C,0.120000*%
G04 APERTURE END LIST*
D10*
%TO.C,R13*%
X136616376Y-130669380D02*
X136949709Y-130193190D01*
X137187804Y-130669380D02*
X137187804Y-129669380D01*
X136806852Y-129669380D01*
X136711614Y-129717000D01*
X136663995Y-129764619D01*
X136616376Y-129859857D01*
X136616376Y-130002714D01*
X136663995Y-130097952D01*
X136711614Y-130145571D01*
X136806852Y-130193190D01*
X137187804Y-130193190D01*
X135663995Y-130669380D02*
X136235423Y-130669380D01*
X135949709Y-130669380D02*
X135949709Y-129669380D01*
X136044947Y-129812238D01*
X136140185Y-129907476D01*
X136235423Y-129955095D01*
X135330661Y-129669380D02*
X134711614Y-129669380D01*
X135044947Y-130050333D01*
X134902090Y-130050333D01*
X134806852Y-130097952D01*
X134759233Y-130145571D01*
X134711614Y-130240809D01*
X134711614Y-130478904D01*
X134759233Y-130574142D01*
X134806852Y-130621761D01*
X134902090Y-130669380D01*
X135187804Y-130669380D01*
X135283042Y-130621761D01*
X135330661Y-130574142D01*
%TO.C,C9*%
X127380901Y-126842592D02*
X127428520Y-126794973D01*
X127476139Y-126652116D01*
X127476139Y-126556878D01*
X127428520Y-126414020D01*
X127333282Y-126318782D01*
X127238044Y-126271163D01*
X127047568Y-126223544D01*
X126904711Y-126223544D01*
X126714235Y-126271163D01*
X126618997Y-126318782D01*
X126523759Y-126414020D01*
X126476139Y-126556878D01*
X126476139Y-126652116D01*
X126523759Y-126794973D01*
X126571378Y-126842592D01*
X127476139Y-127318782D02*
X127476139Y-127509259D01*
X127428520Y-127604497D01*
X127380901Y-127652116D01*
X127238044Y-127747354D01*
X127047568Y-127794973D01*
X126666616Y-127794973D01*
X126571378Y-127747354D01*
X126523759Y-127699735D01*
X126476139Y-127604497D01*
X126476139Y-127414020D01*
X126523759Y-127318782D01*
X126571378Y-127271163D01*
X126666616Y-127223544D01*
X126904711Y-127223544D01*
X126999949Y-127271163D01*
X127047568Y-127318782D01*
X127095187Y-127414020D01*
X127095187Y-127604497D01*
X127047568Y-127699735D01*
X126999949Y-127747354D01*
X126904711Y-127794973D01*
%TO.C,C8*%
X136140185Y-127894142D02*
X136187804Y-127941761D01*
X136330661Y-127989380D01*
X136425899Y-127989380D01*
X136568757Y-127941761D01*
X136663995Y-127846523D01*
X136711614Y-127751285D01*
X136759233Y-127560809D01*
X136759233Y-127417952D01*
X136711614Y-127227476D01*
X136663995Y-127132238D01*
X136568757Y-127037000D01*
X136425899Y-126989380D01*
X136330661Y-126989380D01*
X136187804Y-127037000D01*
X136140185Y-127084619D01*
X135568757Y-127417952D02*
X135663995Y-127370333D01*
X135711614Y-127322714D01*
X135759233Y-127227476D01*
X135759233Y-127179857D01*
X135711614Y-127084619D01*
X135663995Y-127037000D01*
X135568757Y-126989380D01*
X135378280Y-126989380D01*
X135283042Y-127037000D01*
X135235423Y-127084619D01*
X135187804Y-127179857D01*
X135187804Y-127227476D01*
X135235423Y-127322714D01*
X135283042Y-127370333D01*
X135378280Y-127417952D01*
X135568757Y-127417952D01*
X135663995Y-127465571D01*
X135711614Y-127513190D01*
X135759233Y-127608428D01*
X135759233Y-127798904D01*
X135711614Y-127894142D01*
X135663995Y-127941761D01*
X135568757Y-127989380D01*
X135378280Y-127989380D01*
X135283042Y-127941761D01*
X135235423Y-127894142D01*
X135187804Y-127798904D01*
X135187804Y-127608428D01*
X135235423Y-127513190D01*
X135283042Y-127465571D01*
X135378280Y-127417952D01*
%TO.C,C10*%
X128361376Y-132339142D02*
X128408995Y-132386761D01*
X128551852Y-132434380D01*
X128647090Y-132434380D01*
X128789947Y-132386761D01*
X128885185Y-132291523D01*
X128932804Y-132196285D01*
X128980423Y-132005809D01*
X128980423Y-131862952D01*
X128932804Y-131672476D01*
X128885185Y-131577238D01*
X128789947Y-131482000D01*
X128647090Y-131434380D01*
X128551852Y-131434380D01*
X128408995Y-131482000D01*
X128361376Y-131529619D01*
X127408995Y-132434380D02*
X127980423Y-132434380D01*
X127694709Y-132434380D02*
X127694709Y-131434380D01*
X127789947Y-131577238D01*
X127885185Y-131672476D01*
X127980423Y-131720095D01*
X126789947Y-131434380D02*
X126694709Y-131434380D01*
X126599471Y-131482000D01*
X126551852Y-131529619D01*
X126504233Y-131624857D01*
X126456614Y-131815333D01*
X126456614Y-132053428D01*
X126504233Y-132243904D01*
X126551852Y-132339142D01*
X126599471Y-132386761D01*
X126694709Y-132434380D01*
X126789947Y-132434380D01*
X126885185Y-132386761D01*
X126932804Y-132339142D01*
X126980423Y-132243904D01*
X127028042Y-132053428D01*
X127028042Y-131815333D01*
X126980423Y-131624857D01*
X126932804Y-131529619D01*
X126885185Y-131482000D01*
X126789947Y-131434380D01*
%TO.C,R14*%
X128076616Y-124836639D02*
X128409949Y-124360449D01*
X128648044Y-124836639D02*
X128648044Y-123836639D01*
X128267092Y-123836639D01*
X128171854Y-123884259D01*
X128124235Y-123931878D01*
X128076616Y-124027116D01*
X128076616Y-124169973D01*
X128124235Y-124265211D01*
X128171854Y-124312830D01*
X128267092Y-124360449D01*
X128648044Y-124360449D01*
X127124235Y-124836639D02*
X127695663Y-124836639D01*
X127409949Y-124836639D02*
X127409949Y-123836639D01*
X127505187Y-123979497D01*
X127600425Y-124074735D01*
X127695663Y-124122354D01*
X126267092Y-124169973D02*
X126267092Y-124836639D01*
X126505187Y-123789020D02*
X126743282Y-124503306D01*
X126124235Y-124503306D01*
%TO.C,R11*%
X130108639Y-117476401D02*
X129632449Y-117143068D01*
X130108639Y-116904973D02*
X129108639Y-116904973D01*
X129108639Y-117285925D01*
X129156259Y-117381163D01*
X129203878Y-117428782D01*
X129299116Y-117476401D01*
X129441973Y-117476401D01*
X129537211Y-117428782D01*
X129584830Y-117381163D01*
X129632449Y-117285925D01*
X129632449Y-116904973D01*
X130108639Y-118428782D02*
X130108639Y-117857354D01*
X130108639Y-118143068D02*
X129108639Y-118143068D01*
X129251497Y-118047830D01*
X129346735Y-117952592D01*
X129394354Y-117857354D01*
X130108639Y-119381163D02*
X130108639Y-118809735D01*
X130108639Y-119095449D02*
X129108639Y-119095449D01*
X129251497Y-119000211D01*
X129346735Y-118904973D01*
X129394354Y-118809735D01*
%TO.C,R12*%
X129008639Y-117476401D02*
X128532449Y-117143068D01*
X129008639Y-116904973D02*
X128008639Y-116904973D01*
X128008639Y-117285925D01*
X128056259Y-117381163D01*
X128103878Y-117428782D01*
X128199116Y-117476401D01*
X128341973Y-117476401D01*
X128437211Y-117428782D01*
X128484830Y-117381163D01*
X128532449Y-117285925D01*
X128532449Y-116904973D01*
X129008639Y-118428782D02*
X129008639Y-117857354D01*
X129008639Y-118143068D02*
X128008639Y-118143068D01*
X128151497Y-118047830D01*
X128246735Y-117952592D01*
X128294354Y-117857354D01*
X128103878Y-118809735D02*
X128056259Y-118857354D01*
X128008639Y-118952592D01*
X128008639Y-119190687D01*
X128056259Y-119285925D01*
X128103878Y-119333544D01*
X128199116Y-119381163D01*
X128294354Y-119381163D01*
X128437211Y-119333544D01*
X129008639Y-118762116D01*
X129008639Y-119381163D01*
D11*
%TO.C,R13*%
X135246455Y-127487000D02*
X136700583Y-127487000D01*
X135246455Y-129307000D02*
X136700583Y-129307000D01*
%TO.C,C9*%
X127968759Y-126748007D02*
X127968759Y-127270511D01*
X129438759Y-126748007D02*
X129438759Y-127270511D01*
%TO.C,C8*%
X135712267Y-125122000D02*
X136234771Y-125122000D01*
X135712267Y-126592000D02*
X136234771Y-126592000D01*
%TO.C,C10*%
X127457267Y-129567000D02*
X127979771Y-129567000D01*
X127457267Y-131037000D02*
X127979771Y-131037000D01*
%TO.C,R14*%
X126706695Y-121654259D02*
X128160823Y-121654259D01*
X126706695Y-123474259D02*
X128160823Y-123474259D01*
%TO.C,R11*%
X128746259Y-118846323D02*
X128746259Y-117392195D01*
X126926259Y-118846323D02*
X126926259Y-117392195D01*
%TO.C,R12*%
X129466259Y-117392195D02*
X129466259Y-118846323D01*
X131286259Y-117392195D02*
X131286259Y-118846323D01*
%TD*%
M02*
