%TF.GenerationSoftware,KiCad,Pcbnew,(6.0.2)*%
%TF.CreationDate,2022-06-08T22:41:36-07:00*%
%TF.ProjectId,TrailAlarm,54726169-6c41-46c6-9172-6d2e6b696361,1*%
%TF.SameCoordinates,Original*%
%TF.FileFunction,Profile,NP*%
%FSLAX46Y46*%
G04 Gerber Fmt 4.6, Leading zero omitted, Abs format (unit mm)*
G04 Created by KiCad (PCBNEW (6.0.2)) date 2022-06-08 22:41:36*
%MOMM*%
%LPD*%
G01*
G04 APERTURE LIST*
%TA.AperFunction,Profile*%
%ADD10C,0.100000*%
%TD*%
G04 APERTURE END LIST*
D10*
X185503519Y-148717000D02*
G75*
G03*
X188043519Y-146177000I-1J2540001D01*
G01*
X119463519Y-114427000D02*
G75*
G03*
X119463519Y-114427000I-635000J0D01*
G01*
X186773519Y-146177000D02*
G75*
G03*
X186773519Y-146177000I-635000J0D01*
G01*
X186773519Y-114427000D02*
G75*
G03*
X186773519Y-114427000I-635000J0D01*
G01*
X119463519Y-112522000D02*
G75*
G03*
X116923519Y-115062000I1J-2540001D01*
G01*
X116923519Y-146177000D02*
G75*
G03*
X119463519Y-148717000I2540001J1D01*
G01*
X119463519Y-112522000D02*
X185503519Y-112522000D01*
X116923519Y-146177000D02*
X116923519Y-115062000D01*
X119463519Y-146812000D02*
G75*
G03*
X119463519Y-146812000I-635000J0D01*
G01*
X188043519Y-115062000D02*
X188043519Y-146177000D01*
X185503519Y-148717000D02*
X119463519Y-148717000D01*
X188043519Y-115062000D02*
G75*
G03*
X185503519Y-112522000I-2540001J-1D01*
G01*
X192885185Y-146177000D02*
G75*
G03*
X192885185Y-146177000I-1666666J0D01*
G01*
X188718519Y-146177000D02*
X193718519Y-146177000D01*
X191218519Y-143677000D02*
X191218519Y-148677000D01*
X192885185Y-114427000D02*
G75*
G03*
X192885185Y-114427000I-1666666J0D01*
G01*
X188718519Y-114427000D02*
X193718519Y-114427000D01*
X191218519Y-111927000D02*
X191218519Y-116927000D01*
X116050185Y-114427000D02*
G75*
G03*
X116050185Y-114427000I-1666666J0D01*
G01*
X111883519Y-114427000D02*
X116883519Y-114427000D01*
X114383519Y-111927000D02*
X114383519Y-116927000D01*
M02*
